<?xml version="1.0" standalone="no"?>
<!DOCTYPE svg PUBLIC "-//W3C//DTD SVG 20010904//EN"
 "http://www.w3.org/TR/2001/REC-SVG-20010904/DTD/svg10.dtd">
<svg version="1.0" xmlns="http://www.w3.org/2000/svg"
 width="992.000000pt" height="557.000000pt" viewBox="0 0 992.000000 557.000000"
 preserveAspectRatio="xMidYMid meet">

<g transform="translate(0.000000,557.000000) scale(0.100000,-0.100000)"
fill="#000000" stroke="none">
<path d="M3462 5519 c-297 -155 -627 -448 -733 -651 -76 -146 -117 -339 -104
-488 4 -41 20 -154 35 -250 16 -96 36 -222 45 -280 34 -213 110 -463 164 -539
24 -33 19 -43 -16 -30 -46 17 -90 11 -112 -17 -41 -52 -44 -85 -21 -191 12
-54 35 -140 51 -191 16 -51 29 -101 29 -111 0 -33 107 -234 150 -283 40 -46
154 -138 170 -138 5 0 7 28 5 63 -2 34 -4 135 -4 224 0 123 -5 185 -20 255
-11 51 -34 158 -51 238 -17 80 -33 168 -35 195 -2 28 -4 51 -5 53 -5 7 -2 70
3 80 4 6 4 13 -1 16 -4 2 -7 35 -6 72 2 53 -1 70 -14 80 -15 11 -15 13 1 28 9
10 17 23 17 30 0 6 9 12 20 13 11 1 18 -2 15 -7 -3 -5 -1 -11 4 -14 4 -3 11
-32 15 -65 5 -47 11 -60 26 -64 25 -6 28 -55 4 -64 -10 -4 -12 -8 -5 -13 8 -4
9 -15 3 -31 -7 -18 -5 -27 7 -36 14 -12 14 -12 -4 -7 -19 5 -19 5 -2 -9 21
-17 22 -31 2 -23 -18 7 -20 -10 -2 -21 12 -8 18 -83 6 -83 -9 0 1 -82 13 -96
5 -7 4 -23 -2 -39 -8 -22 -8 -30 2 -37 9 -5 9 -8 1 -8 -12 0 -7 -37 9 -56 4
-6 8 -31 7 -55 -2 -63 14 -115 33 -111 9 1 18 -4 21 -12 4 -10 1 -13 -9 -9
-16 6 -17 -6 -5 -59 6 -23 5 -38 -1 -40 -12 -4 -21 -68 -10 -68 4 0 7 -22 7
-50 0 -27 -3 -50 -7 -50 -5 0 -8 -7 -8 -15 0 -8 5 -15 11 -15 6 0 8 -9 4 -20
-13 -40 -15 -90 -5 -90 10 0 7 -40 -4 -59 -4 -5 -1 -13 5 -17 8 -4 7 -9 -2
-15 -11 -7 -9 -9 5 -9 20 0 20 0 0 -15 -10 -8 -14 -15 -8 -15 6 0 12 -12 12
-27 0 -14 7 -32 16 -39 10 -6 13 -14 7 -15 -6 -3 -2 -26 10 -59 22 -63 22 -60
10 -60 -7 0 -54 127 -57 155 -1 6 -5 19 -10 31 -8 19 -22 11 -199 -113 -218
-153 -450 -341 -609 -495 -92 -88 -127 -132 -206 -252 -52 -81 -127 -191 -166
-246 -167 -232 -268 -443 -350 -730 -51 -177 -58 -267 -29 -382 l17 -68 3867
0 3866 0 -55 32 c-61 34 -73 43 -275 204 -127 100 -569 399 -770 519 -44 27
-140 89 -213 139 -181 124 -316 205 -449 272 -99 49 -113 60 -123 90 -13 39
-53 74 -84 74 -13 0 -39 21 -67 53 -73 82 -281 196 -391 213 -32 6 -38 10 -36
27 2 14 18 25 53 37 163 55 240 137 220 232 -9 38 -64 100 -118 131 -61 36
-280 100 -362 107 l-70 5 3 56 c4 68 -11 101 -81 179 -27 30 -63 84 -79 120
-54 120 -70 148 -111 197 -23 27 -62 65 -86 84 -28 22 -52 53 -67 88 -30 64
-91 156 -130 193 -31 29 -99 62 -152 73 -30 6 -33 5 -28 -11 11 -40 37 -161
42 -199 2 -22 9 -67 14 -100 13 -80 13 -135 -1 -135 -6 0 -22 9 -36 20 -17 13
-20 20 -11 20 19 0 18 72 -1 78 -11 4 -12 -2 -7 -24 6 -27 5 -28 -9 -10 -13
18 -13 22 1 43 8 14 13 30 10 36 -2 7 -5 4 -5 -5 -1 -28 -31 -22 -31 6 0 14
-5 28 -11 32 -6 3 -8 17 -5 29 3 13 2 27 -4 30 -5 3 -10 -1 -10 -9 0 -9 -3
-16 -7 -16 -13 1 -44 27 -42 36 4 17 -13 44 -27 44 -27 0 -14 20 14 21 27 1
27 1 -4 8 -50 12 -96 51 -49 41 5 -1 -4 12 -20 29 -36 36 -80 43 -70 10 5 -15
2 -22 -14 -26 -27 -7 -27 -17 2 -32 l22 -11 -22 5 c-59 13 -67 14 -55 9 10 -5
10 -9 1 -20 -9 -11 -7 -18 10 -33 25 -22 27 -37 6 -45 -8 -3 -15 -10 -15 -16
0 -6 5 -8 10 -5 6 3 10 -1 10 -9 0 -9 9 -25 19 -35 14 -14 19 -30 17 -55 -3
-39 -3 -40 22 -27 13 6 24 0 46 -26 17 -20 22 -31 12 -27 -9 3 -16 10 -16 15
0 13 -48 11 -56 -3 -4 -7 -3 -8 5 -4 6 4 19 -1 28 -10 17 -16 16 -17 -9 -11
-36 10 -45 -9 -11 -25 14 -7 35 -29 46 -48 10 -19 25 -40 33 -46 12 -10 11
-13 -8 -18 -19 -5 -20 -8 -8 -15 8 -6 12 -13 8 -16 -11 -11 -69 -8 -80 3 -9 9
-8 12 4 12 9 0 19 4 22 8 2 4 -7 7 -22 6 -43 -2 -44 -3 -39 -18 3 -8 2 -16 -2
-18 -5 -2 -12 -13 -15 -25 -6 -19 -4 -23 15 -23 18 0 19 2 9 15 -11 13 -8 15
21 15 28 -1 31 -2 17 -11 -10 -5 -18 -14 -18 -19 0 -13 61 -12 80 1 12 8 9 9
-12 5 -35 -8 -37 11 -2 20 18 5 29 1 39 -12 13 -17 11 -20 -20 -34 -19 -8 -35
-18 -35 -22 0 -12 28 -10 35 2 3 6 19 10 35 10 35 0 51 -19 18 -21 -48 -3 -53
-4 -50 -18 2 -8 -3 -18 -10 -22 -10 -7 -10 -9 1 -9 11 0 11 -3 1 -15 -10 -12
-10 -15 2 -15 8 0 20 6 27 13 11 10 12 8 7 -10 -4 -12 -2 -24 3 -27 6 -4 8
-13 5 -20 -3 -8 2 -16 13 -19 10 -3 1 -4 -19 -3 -39 1 -49 10 -23 20 29 11 15
26 -24 26 -21 0 -43 6 -49 13 -14 17 -105 21 -100 5 3 -7 22 -13 44 -13 41 -1
72 -14 94 -39 16 -20 3 -21 -16 -1 -17 17 -59 21 -49 5 3 -5 -5 -15 -19 -22
-14 -6 -26 -15 -26 -20 0 -5 -6 -3 -14 4 -17 16 -12 26 22 41 l27 11 -29 4
c-16 2 -32 0 -35 -5 -3 -5 -16 -10 -29 -10 -19 -2 -21 1 -12 12 19 23 -7 52
-41 47 -16 -2 -29 -8 -29 -14 0 -5 -6 -3 -14 4 -8 7 -12 15 -10 17 2 2 -4 10
-14 17 -16 12 -15 13 6 14 12 0 22 -6 22 -14 0 -9 7 -12 20 -9 16 4 18 8 9 19
-6 8 -19 15 -28 15 -9 1 -2 5 14 9 l30 8 -27 1 c-15 0 -30 6 -33 11 -10 16
-25 12 -25 -6 0 -11 -5 -14 -16 -10 -9 3 -19 6 -23 6 -4 0 -18 9 -31 20 -13
11 -20 20 -16 20 4 0 1 7 -7 15 -10 10 -30 13 -61 11 -48 -3 -74 9 -34 17 22
4 -21 6 -121 6 -34 1 -42 4 -38 15 8 20 -15 36 -41 29 -13 -3 -22 -1 -22 6 0
6 8 11 19 11 10 0 24 6 30 14 7 8 22 17 35 20 24 6 43 52 24 58 -5 2 3 19 17
38 32 44 32 65 -3 100 -26 26 -34 28 -88 25 -60 -3 -107 -19 -133 -43 -18 -17
-125 -14 -197 6 -65 18 -82 47 -86 144 -1 37 -6 64 -11 61 -14 -9 -27 19 -17
38 6 11 4 23 -5 35 -8 11 -15 33 -15 50 0 17 -7 37 -15 44 -8 7 -13 16 -10 20
3 5 1 11 -5 15 -14 9 -12 52 3 58 8 3 5 18 -15 53 -28 52 -31 101 -8 129 12
14 11 18 -1 25 -11 8 -11 12 6 24 17 12 17 16 5 31 -12 15 -12 18 3 27 10 5
15 13 12 19 -4 5 1 9 9 9 19 0 21 16 4 23 -8 3 -5 6 5 6 10 1 15 6 12 11 -3 6
-2 10 4 10 5 0 13 -4 16 -10 3 -5 15 -10 26 -10 10 0 18 -3 17 -7 -4 -14 15
-58 41 -98 15 -22 33 -53 41 -68 7 -15 30 -38 49 -50 20 -12 54 -41 77 -64 46
-49 57 -53 49 -20 -5 18 -1 26 19 35 19 9 25 8 30 -4 3 -8 19 -14 41 -14 25 0
34 -4 29 -12 -5 -8 0 -9 14 -6 12 4 25 2 28 -3 3 -5 -1 -9 -8 -9 -8 -1 -6 -6
6 -15 11 -9 44 -16 75 -16 44 -1 49 -3 26 -8 -20 -4 -26 -9 -17 -14 6 -5 16
-6 21 -2 6 3 14 -2 19 -11 8 -15 10 -15 15 0 4 9 17 16 29 17 15 0 18 3 8 6
-8 3 -22 11 -30 18 -8 7 -28 16 -45 20 l-30 7 38 12 c22 6 35 14 31 19 -4 4 9
7 29 7 33 0 49 12 30 23 -5 2 -3 3 2 2 6 -2 21 6 34 16 l23 19 -23 1 -24 0 23
9 c36 15 26 18 -49 16 -41 -2 -65 0 -57 5 7 5 31 9 53 9 22 0 58 5 80 11 41
12 91 54 75 64 -5 3 1 17 13 31 12 14 22 31 22 37 0 7 17 13 38 15 27 2 37 8
37 20 1 22 24 52 51 66 12 6 21 15 20 19 -1 5 6 15 16 23 17 14 17 14 -2 12
-12 -2 -21 4 -23 16 -3 14 0 17 12 13 17 -7 20 1 8 21 -5 7 -16 10 -25 6 -10
-3 -17 -1 -17 5 0 6 -8 11 -17 11 -13 0 -9 7 15 26 38 30 40 40 10 47 -12 4
-19 9 -15 13 3 4 -7 25 -23 48 -17 23 -32 52 -35 65 -9 47 -38 77 -69 72 -5
-1 -17 6 -27 15 -10 9 -24 14 -31 12 -7 -3 -20 5 -30 16 -14 17 -20 19 -35 9
-10 -6 -17 -16 -16 -22 2 -6 -3 -8 -10 -6 -20 8 -137 10 -137 3 0 -10 -60 -38
-82 -38 -10 0 -18 -3 -18 -8 0 -8 -87 -32 -133 -37 -32 -3 -59 -23 -51 -36 3
-5 -6 -9 -20 -9 -13 0 -27 -6 -29 -12 -4 -10 -8 -10 -15 1 -12 17 -35 4 -28
-15 4 -10 0 -14 -11 -12 -10 2 -18 -3 -19 -9 -3 -24 -4 -25 -18 -14 -11 9 -12
6 -8 -15 3 -16 -1 -30 -9 -35 -10 -6 -10 -9 -1 -9 6 0 12 -5 12 -10 0 -7 -20
-9 -52 -6 -46 5 -55 2 -70 -17 -14 -18 -18 -19 -18 -6 0 20 -24 31 -37 18 -5
-5 -31 -10 -57 -11 -25 0 -49 -5 -52 -10 -4 -6 -10 -5 -14 3 -7 10 -11 10 -24
0 -13 -11 -20 -11 -41 3 -28 18 -39 21 -30 6 11 -17 -11 -11 -39 11 -21 17
-26 18 -26 5 0 -9 -4 -16 -10 -16 -5 0 -10 5 -10 11 0 5 -5 7 -10 4 -6 -4 -19
4 -30 17 -11 13 -19 17 -20 11 0 -9 -11 -11 -37 -8 -75 11 -95 17 -114 36 -10
10 -32 19 -48 19 -33 0 -49 16 -32 33 8 8 7 15 -3 26 -8 9 -16 33 -18 54 -3
30 -1 37 13 37 9 0 20 7 23 16 8 22 9 21 -16 28 -18 4 -20 8 -10 18 9 9 15 9
24 0 17 -17 28 -15 28 4 0 8 -4 13 -9 9 -5 -3 -11 3 -13 12 -2 11 -12 18 -28
18 -18 0 -26 6 -28 23 -2 15 2 22 12 22 19 0 21 17 4 22 -20 7 67 37 139 48
37 6 70 14 73 17 9 9 -144 -9 -157 -19 -7 -6 -19 -6 -32 1 -13 7 -22 8 -26 1
-3 -5 -16 -15 -28 -20 -19 -10 -20 -9 -6 2 11 9 14 21 8 41 -4 16 -4 25 2 21
5 -3 9 2 9 10 0 9 -5 15 -11 13 -6 -1 -16 14 -22 33 -11 31 -16 35 -45 35 -28
0 -30 2 -16 12 17 13 10 37 -10 30 -7 -3 -18 9 -26 26 -9 22 -10 32 -2 35 8 2
8 11 1 29 -7 20 -6 30 5 41 11 11 12 20 3 39 -9 19 -7 29 12 53 22 31 14 42
-12 16 -12 -12 -16 -10 -30 14 -20 33 -22 53 -4 47 17 -6 49 12 42 24 -4 5 -1
9 6 9 7 0 9 -8 6 -21 -4 -16 -1 -20 14 -17 11 2 19 7 19 13 -1 5 20 14 46 20
26 5 50 17 55 25 4 8 15 32 24 52 9 21 25 43 36 49 11 5 24 20 29 32 l9 22 0
-23 c1 -12 -6 -25 -14 -28 -11 -5 -11 -9 -2 -19 9 -10 15 -7 29 16 10 16 22
29 28 29 15 0 12 -17 -5 -24 -8 -3 -15 -11 -15 -17 0 -7 8 -5 20 6 27 24 47 8
30 -25 -11 -20 -10 -21 9 -10 12 6 21 16 21 23 0 7 9 23 20 35 17 18 18 25 8
41 -9 15 -9 25 0 43 11 22 11 22 6 -4 -7 -31 0 -34 38 -16 22 10 26 18 21 39
-3 15 0 30 6 34 8 5 10 -1 5 -19 -4 -16 -2 -26 5 -26 6 0 11 17 11 39 0 28 7
48 25 68 13 15 25 22 25 16 0 -7 -4 -13 -10 -13 -12 0 -31 -67 -24 -85 3 -8
-6 -30 -21 -49 -14 -19 -22 -37 -17 -40 5 -3 15 8 22 24 7 17 18 30 25 30 16
0 25 22 25 61 0 16 4 29 9 29 5 0 11 6 14 13 2 6 2 1 0 -12 -2 -13 2 -28 9
-32 19 -13 28 -11 28 5 0 8 5 18 11 22 8 4 9 -3 4 -25 -4 -20 -2 -37 5 -46 6
-8 9 -18 6 -23 -3 -6 1 -15 9 -22 8 -7 15 -26 15 -42 0 -16 4 -27 9 -23 6 3 6
17 1 35 -5 18 -5 32 1 35 5 4 9 -4 10 -17 0 -22 1 -22 8 -3 8 19 8 19 15 -3
11 -35 40 -8 32 30 -3 15 -1 28 4 28 6 0 10 -7 10 -16 0 -13 3 -14 13 -5 21
17 28 1 11 -25 -16 -24 -11 -64 8 -64 5 0 12 9 15 20 3 11 12 20 19 20 8 0 14
7 14 15 0 23 13 18 35 -15 20 -29 51 -42 43 -17 -3 6 -11 12 -18 12 -17 0 -24
21 -10 30 8 5 8 11 0 20 -18 22 -1 39 19 21 10 -9 21 -13 24 -9 4 3 7 -1 7
-10 0 -10 -7 -17 -15 -17 -8 0 -15 -5 -15 -11 0 -7 11 -9 28 -5 15 3 21 3 15
0 -7 -3 -13 -13 -13 -21 0 -14 2 -14 19 1 17 15 19 15 25 1 3 -9 10 -13 16
-10 16 10 12 22 -10 28 -11 3 -20 11 -20 17 0 7 7 10 15 6 18 -7 18 -7 0 37
-11 27 -19 35 -32 30 -11 -4 -14 -3 -9 5 4 7 14 12 23 12 9 0 13 6 9 15 -3 8
-9 22 -12 30 -3 8 -2 15 4 15 9 0 22 -40 27 -83 3 -22 4 -23 38 -31 25 -6 28
-5 22 14 -8 25 3 26 21 3 13 -17 14 -17 8 0 -5 14 0 17 25 17 20 0 31 5 31 14
0 14 32 12 55 -4 15 -11 93 -12 99 -2 3 6 1 24 -5 41 -11 32 -4 56 9 34 11
-17 36 1 29 20 -3 8 1 23 9 34 14 17 15 17 9 -4 -4 -16 0 -25 15 -33 15 -8 19
-17 15 -31 -7 -21 10 -27 18 -6 6 17 19 2 21 -25 1 -13 8 -24 19 -26 15 -3 17
1 11 25 -3 15 -14 35 -23 43 -20 18 -36 70 -22 70 14 0 26 -22 23 -41 -2 -10
6 -19 18 -22 11 -3 20 -13 20 -24 0 -10 5 -25 11 -33 9 -13 10 -12 5 3 -7 21
7 23 23 3 7 -9 8 -17 2 -20 -5 -4 -6 -18 -2 -34 7 -23 12 -27 39 -24 18 2 32
-1 32 -7 0 -6 -7 -11 -16 -11 -11 0 -14 -5 -10 -16 3 -9 6 -18 6 -20 0 -2 9
-4 20 -4 11 0 20 -5 20 -11 0 -6 7 -8 16 -5 12 4 15 2 10 -9 -3 -8 -1 -15 4
-15 6 0 10 -7 10 -15 0 -8 5 -15 10 -15 6 0 10 -5 10 -10 0 -7 -7 -7 -22 1
-18 10 -20 9 -15 -5 3 -8 2 -18 -4 -21 -14 -9 1 -27 17 -21 7 3 17 0 21 -7 5
-7 20 -18 36 -26 45 -23 31 -37 -30 -32 -13 1 -23 -3 -23 -9 0 -5 9 -10 20
-10 12 0 25 -10 32 -25 6 -14 17 -25 25 -25 7 0 13 -5 13 -11 0 -6 7 -9 15 -5
8 3 15 1 15 -3 0 -5 -7 -11 -15 -14 -12 -5 -12 -10 0 -34 8 -15 15 -34 15 -41
0 -31 17 1 18 34 1 20 4 45 7 55 5 14 1 19 -14 19 -12 0 -21 6 -21 16 0 8 5
12 10 9 16 -10 12 7 -7 27 -14 16 -14 18 0 18 8 0 17 -6 20 -12 2 -7 7 -10 11
-7 13 12 -106 243 -174 340 -76 106 -201 239 -270 286 -64 43 -231 128 -299
153 -56 20 -77 20 -595 20 l-537 -1 -97 -50z m148 17 c0 -2 -7 -7 -16 -10 -8
-3 -12 -2 -9 4 6 10 25 14 25 6z m-55 -57 c11 -16 1 -19 -13 -3 -7 8 -8 14 -3
14 5 0 13 -5 16 -11z m-5 -39 c0 -14 -28 -1 -34 16 -4 12 -2 12 14 4 11 -6 20
-15 20 -20z m-40 1 c0 -14 -37 -24 -52 -15 -9 6 -5 10 12 15 36 10 40 10 40 0z
m1375 -21 c3 -5 2 -10 -4 -10 -5 0 -17 -3 -27 -7 -16 -6 -17 -5 -4 10 17 19
26 21 35 7z m-1285 -10 c0 -5 -2 -10 -4 -10 -3 0 -8 5 -11 10 -3 6 -1 10 4 10
6 0 11 -4 11 -10z m-170 -32 c17 -21 19 -21 25 -5 4 9 10 17 14 17 9 0 12 -40
3 -41 -48 -6 -52 -5 -52 12 0 12 -6 16 -20 12 -11 -3 -20 -1 -20 5 0 9 12 17
28 21 2 1 12 -9 22 -21z m120 -20 c0 -4 -4 -8 -10 -8 -5 0 -10 4 -10 9 0 5 -3
18 -6 28 -5 16 -4 16 10 -1 9 -11 16 -23 16 -28z m-180 28 c0 -3 -4 -8 -10
-11 -5 -3 -10 -1 -10 4 0 6 5 11 10 11 6 0 10 -2 10 -4z m16 -41 c10 -8 15
-14 9 -14 -5 0 -19 6 -29 14 -11 8 -15 15 -10 15 6 0 19 -7 30 -15z m1559 -19
c0 -15 -4 -21 -9 -16 -5 5 -6 16 -3 24 9 22 12 20 12 -8z m-1635 -2 c0 -8 -4
-12 -10 -9 -5 3 -10 10 -10 16 0 5 5 9 10 9 6 0 10 -7 10 -16z m58 -2 c3 -9
-2 -13 -14 -10 -9 1 -19 9 -22 16 -3 9 2 13 14 10 9 -1 19 -9 22 -16z m874 -4
c-7 -7 -12 -8 -12 -2 0 14 12 26 19 19 2 -3 -1 -11 -7 -17z m-952 -29 c0 -18
-2 -19 -15 -9 -15 12 -12 30 6 30 5 0 9 -10 9 -21z m920 11 c0 -5 -4 -10 -10
-10 -5 0 -10 5 -10 10 0 6 5 10 10 10 6 0 10 -4 10 -10z m10 -34 c0 -3 -4 -8
-10 -11 -5 -3 -10 -1 -10 4 0 6 5 11 10 11 6 0 10 -2 10 -4z m93 -11 c-3 -9
-8 -14 -10 -11 -3 3 -2 9 2 15 9 16 15 13 8 -4z m728 -1 c12 -14 11 -16 -5
-13 -11 2 -21 10 -24 17 -5 17 13 15 29 -4z m-1831 -26 c0 -6 -7 -5 -15 2 -8
7 -15 17 -15 22 0 6 7 5 15 -2 8 -7 15 -17 15 -22z m1320 22 c0 -5 -7 -10 -15
-10 -8 0 -15 -5 -15 -12 0 -6 -3 -8 -7 -4 -5 4 1 14 11 22 23 17 26 17 26 4z
m-1370 -20 c0 -5 -4 -10 -10 -10 -5 0 -10 5 -10 10 0 6 5 10 10 10 6 0 10 -4
10 -10z m120 0 c0 -5 -4 -10 -10 -10 -5 0 -10 5 -10 10 0 6 5 10 10 10 6 0 10
-4 10 -10z m936 -17 c-10 -10 -19 5 -10 18 6 11 8 11 12 0 2 -7 1 -15 -2 -18z
m221 -15 c-3 -7 -5 -2 -5 12 0 14 2 19 5 13 2 -7 2 -19 0 -25z m543 28 c0 -3
-4 -8 -10 -11 -5 -3 -10 -1 -10 4 0 6 5 11 10 11 6 0 10 -2 10 -4z m-728 -28
c-7 -7 -12 -8 -12 -2 0 14 12 26 19 19 2 -3 -1 -11 -7 -17z m138 12 c0 -5 -5
-10 -11 -10 -5 0 -7 5 -4 10 3 6 8 10 11 10 2 0 4 -4 4 -10z m260 -10 c0 -5
-4 -10 -10 -10 -5 0 -10 5 -10 10 0 6 5 10 10 10 6 0 10 -4 10 -10z m-130 -4
c0 -3 -4 -8 -10 -11 -5 -3 -10 -1 -10 4 0 6 5 11 10 11 6 0 10 -2 10 -4z m175
-6 c3 -5 -1 -10 -9 -10 -9 0 -16 5 -16 10 0 6 4 10 9 10 6 0 13 -4 16 -10z
m245 6 c0 -3 -4 -8 -10 -11 -5 -3 -10 -1 -10 4 0 6 5 11 10 11 6 0 10 -2 10
-4z m-1790 -10 c0 -2 -9 -6 -20 -9 -11 -3 -20 -1 -20 4 0 5 9 9 20 9 11 0 20
-2 20 -4z m1001 -31 c15 10 10 -11 -5 -24 -11 -10 -15 -8 -18 6 -2 10 -2 27 1
38 5 19 6 18 9 -3 2 -12 8 -20 13 -17z m146 13 c-3 -8 -6 -5 -6 6 -1 11 2 17
5 13 3 -3 4 -12 1 -19z m-331 -34 c-4 -9 -9 -15 -11 -12 -3 3 -3 13 1 22 4 9
9 15 11 12 3 -3 3 -13 -1 -22z m934 -10 c0 -8 -4 -12 -10 -9 -5 3 -10 13 -10
21 0 8 5 12 10 9 6 -3 10 -13 10 -21z m-460 -28 c0 -12 -5 -7 -19 24 -11 24
-11 24 3 6 9 -11 16 -24 16 -30z m123 11 c2 -15 0 -30 -5 -33 -4 -3 -8 4 -8
15 0 11 -7 26 -15 35 -14 13 -13 15 4 13 13 -1 21 -10 24 -30z m307 13 c0 -5
-4 -10 -10 -10 -5 0 -10 5 -10 10 0 6 5 10 10 10 6 0 10 -4 10 -10z m-80 -16
c0 -2 -7 -4 -15 -4 -8 0 -15 4 -15 10 0 5 7 7 15 4 8 -4 15 -8 15 -10z m440 6
c0 -5 -4 -10 -9 -10 -6 0 -13 5 -16 10 -3 6 1 10 9 10 9 0 16 -4 16 -10z
m-2110 -32 c0 -5 -7 -3 -15 6 -8 8 -15 18 -15 22 0 3 7 1 15 -6 8 -7 15 -17
15 -22z m-40 2 c0 -5 -9 -10 -21 -10 -11 0 -17 5 -14 10 3 6 13 10 21 10 8 0
14 -4 14 -10z m1251 -13 c-13 -13 -26 -3 -16 12 3 6 11 8 17 5 6 -4 6 -10 -1
-17z m193 -2 c-7 -16 -24 -21 -24 -6 0 8 7 13 27 20 1 1 0 -6 -3 -14z m-1467
-20 c9 -25 -2 -27 -22 -5 -17 18 -17 20 -1 20 9 0 19 -7 23 -15z m73 11 c0 -3
-4 -8 -10 -11 -5 -3 -10 -1 -10 4 0 6 5 11 10 11 6 0 10 -2 10 -4z m-40 -16
c0 -5 -2 -10 -4 -10 -3 0 -8 5 -11 10 -3 6 -1 10 4 10 6 0 11 -4 11 -10z m-20
-40 c0 -5 -2 -10 -4 -10 -3 0 -8 5 -11 10 -3 6 -1 10 4 10 6 0 11 -4 11 -10z
m980 -1 c0 -6 -7 -17 -15 -25 -13 -14 -16 -14 -21 1 -4 10 -1 21 7 26 19 12
29 11 29 -2z m1200 1 c0 -5 -4 -10 -10 -10 -5 0 -10 5 -10 10 0 6 5 10 10 10
6 0 10 -4 10 -10z m-2250 -9 c0 -5 14 -14 31 -20 17 -6 28 -15 24 -21 -4 -7
-17 -3 -35 10 -34 24 -46 40 -31 40 6 0 11 -4 11 -9z m20 -63 c0 -6 -6 -5 -15
2 -8 7 -15 14 -15 16 0 2 7 1 15 -2 8 -4 15 -11 15 -16z m-50 -72 c0 -6 -7 -2
-15 8 -8 11 -15 25 -15 30 0 6 7 2 15 -8 8 -11 15 -25 15 -30z m827 2 c-12
-23 -15 -24 -32 -12 -15 11 -16 14 -3 14 8 0 21 7 28 15 18 22 23 12 7 -17z
m-781 -5 c-10 -10 -19 5 -10 18 6 11 8 11 12 0 2 -7 1 -15 -2 -18z m2350 6 c3
-5 -4 -9 -14 -9 -11 0 -22 6 -25 14 -4 10 0 12 14 9 11 -3 22 -9 25 -14z
m-2385 -36 c13 -17 13 -17 -6 -3 -11 8 -22 16 -24 17 -2 2 0 3 6 3 6 0 17 -8
24 -17z m-6 -43 c3 -5 -3 -10 -14 -10 -12 0 -21 5 -21 10 0 6 6 10 14 10 8 0
18 -4 21 -10z m2415 -20 c0 -5 -5 -10 -11 -10 -5 0 -7 5 -4 10 3 6 8 10 11 10
2 0 4 -4 4 -10z m-2413 -25 c9 -25 -2 -27 -22 -5 -17 18 -17 20 -1 20 9 0 19
-7 23 -15z m53 -34 c0 -6 -4 -13 -10 -16 -5 -3 -10 1 -10 9 0 9 5 16 10 16 6
0 10 -4 10 -9z m-80 -40 c0 -6 -4 -13 -10 -16 -5 -3 -10 1 -10 9 0 9 5 16 10
16 6 0 10 -4 10 -9z m-100 -621 c0 -5 -2 -10 -4 -10 -3 0 -8 5 -11 10 -3 6 -1
10 4 10 6 0 11 -4 11 -10z m980 -96 c0 -8 -4 -12 -10 -9 -5 3 -10 10 -10 16 0
5 5 9 10 9 6 0 10 -7 10 -16z m84 -43 c3 -4 -6 -6 -19 -3 -14 2 -25 6 -25 8 0
8 39 4 44 -5z m-773 -54 c-15 -15 -24 -2 -16 24 7 20 8 21 17 5 7 -12 7 -21
-1 -29z m2091 -9 c9 -26 13 -28 47 -22 34 6 35 6 19 -12 -15 -15 -21 -16 -43
-6 -14 7 -43 12 -63 12 -21 0 -43 5 -50 12 -9 9 -18 9 -37 0 -35 -16 -43 -15
-55 8 -10 19 -8 20 45 17 34 -2 62 1 73 9 27 20 54 12 64 -18z m-2055 -30 c-3
-7 -5 -2 -5 12 0 14 2 19 5 13 2 -7 2 -19 0 -25z m2013 -38 c11 -7 5 -10 -25
-11 -22 -1 -43 -1 -47 0 -3 0 -28 -6 -54 -14 -26 -8 -43 -10 -37 -4 7 7 104
33 143 38 3 0 12 -4 20 -9z m-2270 -10 c0 -5 -4 -10 -10 -10 -5 0 -10 5 -10
10 0 6 5 10 10 10 6 0 10 -4 10 -10z m2350 -10 c0 -5 -2 -10 -4 -10 -3 0 -8 5
-11 10 -3 6 -1 10 4 10 6 0 11 -4 11 -10z m-115 -90 c-3 -5 -11 -10 -16 -10
-6 0 -7 5 -4 10 3 6 11 10 16 10 6 0 7 -4 4 -10z m95 3 c0 -12 -39 -73 -46
-73 -4 0 -1 7 6 15 6 8 9 19 5 25 -10 16 2 40 20 40 8 0 15 -3 15 -7z m-235
-33 c4 -11 17 -33 31 -49 l25 -30 -43 -6 c-24 -3 -63 -5 -88 -3 -61 4 -59 26
5 71 59 42 62 43 70 17z m259 -76 c17 -7 22 -34 6 -34 -5 0 -14 9 -20 20 -12
22 -10 23 14 14z m-1304 -134 c8 -5 11 -10 5 -10 -5 0 -17 5 -25 10 -8 5 -10
10 -5 10 6 0 17 -5 25 -10z m145 -19 c7 -12 -12 -24 -25 -16 -11 7 -4 25 10
25 5 0 11 -4 15 -9z m-276 -63 c39 -41 40 -43 18 -50 -31 -9 -100 -9 -112 0
-6 4 -11 14 -10 22 0 15 44 69 57 70 3 0 25 -19 47 -42z m626 -31 c0 -26 -20
-25 -23 2 -3 16 1 22 10 19 7 -3 13 -12 13 -21z m1175 -221 c0 -2 -7 -7 -16
-10 -8 -3 -12 -2 -9 4 6 10 25 14 25 6z m-1540 -68 c0 -12 -3 -18 -7 -15 -3 4
-12 2 -20 -5 -22 -18 -26 -1 -6 25 20 28 33 26 33 -5z m-381 -2 c10 -12 8 -13
-8 -9 -12 3 -21 9 -21 14 0 14 16 11 29 -5z m334 -58 c-2 -5 -13 -8 -25 -8
-11 0 -22 -8 -25 -20 -6 -23 -23 -27 -23 -5 0 8 5 15 10 15 6 0 10 7 10 15 0
8 7 15 15 15 8 0 15 5 15 10 0 6 6 5 14 -2 8 -7 12 -16 9 -20z m-1192 -73 l-8
-80 -2 90 c-1 57 2 86 9 79 6 -6 6 -39 1 -89z m814 85 c-3 -5 -10 -10 -16 -10
-5 0 -9 5 -9 10 0 6 7 10 16 10 8 0 12 -4 9 -10z m96 0 c5 0 9 -4 9 -10 0 -5
-9 -10 -20 -10 -34 0 -22 -17 19 -27 22 -6 45 -7 54 -1 11 6 26 0 50 -22 19
-16 39 -30 45 -30 6 0 13 -4 16 -9 9 -14 -5 -41 -21 -41 -8 0 -12 4 -8 10 10
16 -19 50 -43 50 -15 0 -21 -4 -16 -12 4 -6 10 -29 14 -50 8 -43 -5 -51 -35
-18 -23 25 -35 26 -35 2 0 -11 10 -24 23 -29 21 -10 21 -10 -6 -10 -21 0 -31
6 -37 23 -9 23 -30 34 -30 16 0 -5 -13 -9 -30 -9 -38 0 -40 17 -2 18 22 1 17
4 -23 18 -64 21 -111 66 -110 106 0 24 4 29 20 26 11 -2 44 -5 73 -8 44 -4 52
-2 52 12 0 12 5 15 16 11 9 -3 20 -6 25 -6z m179 -31 c0 -6 -9 -8 -20 -4 -14
5 -20 2 -20 -9 0 -9 -7 -16 -17 -16 -9 0 -13 3 -10 7 4 3 2 12 -4 20 -9 10 -4
13 30 13 22 0 41 -5 41 -11z m45 -64 c30 -19 55 -37 55 -39 0 -2 -16 -6 -35
-8 -30 -3 -34 -1 -29 14 3 10 1 18 -5 18 -5 0 -22 11 -37 25 -39 36 -12 31 51
-10z m42 19 c-3 -3 -12 -4 -19 -1 -8 3 -5 6 6 6 11 1 17 -2 13 -5z m409 -136
c-23 -38 -80 -32 -91 10 -5 20 0 31 21 50 l27 25 19 -24 19 -24 -2 25 c-2 46
3 46 11 0 4 -28 3 -52 -4 -62z m-360 78 c8 -8 14 -18 14 -22 0 -4 -3 -4 -7 -1
-3 4 -14 0 -24 -9 -10 -9 -23 -13 -28 -9 -18 11 -12 23 8 18 10 -3 22 0 25 6
4 6 2 11 -3 11 -6 0 -11 5 -11 10 0 14 9 12 26 -4z m-126 -46 c0 -5 -4 -10
-10 -10 -5 0 -10 5 -10 10 0 6 5 10 10 10 6 0 10 -4 10 -10z m-40 -10 c0 -5
-5 -10 -11 -10 -5 0 -7 5 -4 10 3 6 8 10 11 10 2 0 4 -4 4 -10z m-30 -20 c0
-5 -4 -10 -10 -10 -5 0 -10 5 -10 10 0 6 5 10 10 10 6 0 10 -4 10 -10z m70
-10 c0 -5 -2 -10 -4 -10 -3 0 -8 5 -11 10 -3 6 -1 10 4 10 6 0 11 -4 11 -10z
m24 -74 c-10 -8 -21 -12 -24 -10 -5 6 21 24 34 24 6 0 1 -6 -10 -14z m1716 4
c0 -5 -4 -10 -10 -10 -5 0 -10 5 -10 10 0 6 5 10 10 10 6 0 10 -4 10 -10z
m-770 -70 c0 -5 -4 -10 -9 -10 -6 0 -13 5 -16 10 -3 6 1 10 9 10 9 0 16 -4 16
-10z m803 -60 c3 -11 1 -20 -4 -20 -4 0 -13 9 -19 20 -8 16 -8 20 3 20 8 0 17
-9 20 -20z m-799 -100 c35 -13 34 -32 -1 -24 -37 9 -44 14 -38 25 8 11 8 11
39 -1z m-56 -29 c3 -8 -1 -12 -9 -9 -7 2 -15 10 -17 17 -3 8 1 12 9 9 7 -2 15
-10 17 -17z m849 3 c-3 -3 -12 -4 -19 -1 -8 3 -5 6 6 6 11 1 17 -2 13 -5z
m-890 -29 c2 -11 0 -15 -3 -8 -3 7 -12 9 -20 6 -7 -3 -11 -9 -8 -14 3 -5 1 -9
-5 -9 -17 0 -23 20 -10 36 16 20 43 14 46 -11z m249 -10 c19 -8 40 -12 47 -9
14 5 64 -42 55 -51 -5 -6 -148 63 -148 71 0 7 9 5 46 -11z m361 -29 c-3 -8
-14 -13 -24 -11 -10 2 -20 4 -23 4 -3 1 6 7 20 14 29 16 35 14 27 -7z m-610
-31 c13 -43 3 -45 -20 -6 -20 35 -21 41 -4 41 8 0 18 -16 24 -35z m783 -26 c0
-6 9 -8 20 -4 26 8 26 -10 -1 -29 -19 -13 -23 -13 -43 5 -18 17 -19 21 -6 29
20 13 30 12 30 -1z m-46 -34 c3 -9 0 -15 -9 -15 -8 0 -15 7 -15 15 0 8 4 15 9
15 5 0 11 -7 15 -15z m5 -52 c2 -2 -3 -3 -11 -3 -9 0 -19 7 -22 16 -6 15 -4
15 11 3 10 -7 20 -15 22 -16z m-506 -72 c4 0 7 -8 7 -16 0 -8 4 -15 10 -15 5
0 7 -7 4 -15 -4 -8 -1 -15 5 -15 6 0 11 -6 11 -13 0 -32 -138 -70 -166 -46
-11 9 -14 8 -14 -2 0 -10 -3 -10 -12 -1 -21 21 -39 14 -32 -12 5 -21 3 -24
-15 -19 -12 3 -21 1 -21 -6 0 -16 -27 -13 -34 4 -3 8 -12 12 -19 9 -10 -3 -17
4 -22 23 l-8 28 -7 -25 -6 -25 -7 28 c-4 15 -5 32 -2 37 4 6 1 10 -4 10 -6 0
-11 -9 -11 -21 0 -33 -25 -16 -28 19 l-3 32 69 0 c73 0 82 -6 82 -51 0 -10 5
-19 11 -19 7 0 8 14 4 39 -6 37 -5 39 24 46 17 3 35 4 41 0 5 -3 10 0 10 9 0
8 6 16 13 19 10 3 93 2 120 -2z m103 -18 c-10 -10 -19 5 -10 18 6 11 8 11 12
0 2 -7 1 -15 -2 -18z m-493 -50 c5 -26 2 -42 -7 -32 -9 11 -15 59 -7 59 5 0
11 -12 14 -27z m-53 -10 c0 -13 -3 -13 -15 -3 -8 7 -12 16 -9 21 8 13 24 1 24
-18z"/>
<path d="M5196 3833 c-6 -14 -5 -15 5 -6 7 7 10 15 7 18 -3 3 -9 -2 -12 -12z"/>
<path d="M3730 2916 c0 -8 59 -34 64 -28 3 3 -6 11 -20 19 -26 13 -44 17 -44
9z"/>
<path d="M3660 2866 c0 -2 7 -7 16 -10 8 -3 12 -2 9 4 -6 10 -25 14 -25 6z"/>
<path d="M5045 2102 c-5 -12 -9 -13 -12 -4 -10 27 -21 10 -12 -18 6 -16 15
-27 20 -24 5 3 7 10 4 15 -4 5 -1 9 4 9 6 0 11 -4 11 -10 0 -5 4 -10 9 -10 13
0 8 49 -6 54 -6 3 -14 -3 -18 -12z"/>
<path d="M4990 2085 c0 -5 5 -17 10 -25 5 -8 10 -10 10 -5 0 6 -5 17 -10 25
-5 8 -10 11 -10 5z"/>
<path d="M4970 5121 c0 -12 6 -21 15 -21 8 0 15 4 15 9 0 5 -7 14 -15 21 -13
10 -15 9 -15 -9z"/>
<path d="M4234 5050 c0 -25 5 -40 13 -40 7 0 13 -7 13 -16 0 -10 6 -14 14 -11
7 3 19 0 25 -6 8 -8 11 -7 11 6 0 9 -4 17 -10 17 -5 0 -10 11 -10 25 0 22 -33
65 -51 65 -3 0 -6 -18 -5 -40z m46 -21 c0 -5 -4 -9 -10 -9 -5 0 -10 7 -10 16
0 8 5 12 10 9 6 -3 10 -10 10 -16z"/>
<path d="M4815 5070 c4 -6 11 -8 16 -5 14 9 11 15 -7 15 -8 0 -12 -5 -9 -10z"/>
<path d="M4790 5041 c0 -6 9 -15 20 -21 13 -7 20 -7 20 -1 0 6 -9 15 -20 21
-13 7 -20 7 -20 1z"/>
<path d="M4180 5004 c0 -8 5 -12 10 -9 6 3 10 10 10 16 0 5 -4 9 -10 9 -5 0
-10 -7 -10 -16z"/>
<path d="M4496 4974 c-11 -7 -17 -17 -13 -20 3 -4 14 1 23 10 21 22 15 28 -10
10z"/>
<path d="M4227 4961 c-4 -17 -3 -21 5 -13 5 5 8 16 6 23 -3 8 -7 3 -11 -10z"/>
<path d="M4132 4941 l-1 -30 21 21 c16 16 18 22 7 29 -22 14 -26 11 -27 -20z"/>
<path d="M4080 4951 c0 -5 5 -13 10 -16 6 -3 10 -2 10 4 0 5 -4 13 -10 16 -5
3 -10 2 -10 -4z"/>
<path d="M5222 4936 c1 -10 8 -17 13 -17 15 1 12 24 -3 29 -9 3 -13 -2 -10
-12z"/>
<path d="M3900 4910 c0 -12 -7 -32 -16 -46 -20 -30 -9 -46 24 -33 24 9 29 25
10 32 -7 2 -3 2 10 0 12 -2 22 0 22 4 0 5 12 16 28 26 l27 18 -32 -5 c-21 -3
-37 0 -47 9 -20 20 -26 19 -26 -5z"/>
<path d="M4086 4911 c-4 -7 -5 -15 -2 -18 9 -9 19 4 14 18 -4 11 -6 11 -12 0z"/>
<path d="M4155 4910 c-3 -5 -1 -10 4 -10 6 0 11 5 11 10 0 6 -2 10 -4 10 -3 0
-8 -4 -11 -10z"/>
<path d="M5102 4809 c2 -7 10 -15 17 -17 8 -3 12 1 9 9 -2 7 -10 15 -17 17 -8
3 -12 -1 -9 -9z"/>
<path d="M5073 4762 c-13 -15 -23 -33 -23 -39 0 -7 -4 -13 -10 -13 -5 0 -10
-6 -10 -14 0 -23 81 -26 104 -4 11 10 15 18 9 18 -6 0 -14 10 -17 23 l-6 22
-19 -22 c-29 -34 -35 -28 -12 11 33 53 22 66 -16 18z"/>
<path d="M5451 4725 c-1 -12 4 -26 11 -33 9 -9 9 -12 0 -12 -7 0 -12 -5 -12
-11 0 -6 7 -8 16 -5 12 4 15 2 10 -9 -3 -8 -1 -15 4 -15 14 0 11 19 -10 65
-13 28 -19 34 -19 20z"/>
<path d="M3715 4671 c-3 -5 -1 -12 5 -16 12 -7 30 2 30 16 0 12 -27 12 -35 0z"/>
<path d="M5132 4668 c-18 -18 -14 -28 11 -28 29 0 37 7 30 26 -6 17 -25 18
-41 2z"/>
<path d="M5370 4645 c0 -8 5 -15 10 -15 6 0 10 7 10 15 0 8 -4 15 -10 15 -5 0
-10 -7 -10 -15z"/>
<path d="M5030 4635 c0 -10 7 -15 18 -13 21 4 19 22 -2 26 -10 2 -16 -3 -16
-13z"/>
<path d="M5118 4624 c-14 -14 4 -24 43 -24 21 0 39 5 39 10 0 6 -8 10 -17 10
-10 0 -27 3 -38 6 -11 3 -24 2 -27 -2z"/>
<path d="M5488 4610 c-2 -7 -15 -14 -28 -15 -14 -1 -28 -3 -32 -4 -13 -2 -9
-38 6 -50 11 -9 13 -6 10 19 -3 28 -2 31 19 24 36 -11 47 -25 41 -50 -4 -15
-2 -24 5 -24 6 0 11 -17 11 -39 0 -22 5 -43 11 -47 6 -3 9 -15 6 -25 -3 -10
-2 -21 3 -24 4 -2 10 -39 14 -82 4 -43 12 -93 19 -111 9 -25 9 -37 -1 -52 -17
-27 -15 -59 4 -67 31 -12 34 12 15 112 -11 55 -34 174 -51 265 -30 156 -42
198 -52 170z m97 -520 c3 -5 1 -10 -4 -10 -6 0 -11 5 -11 10 0 6 2 10 4 10 3
0 8 -4 11 -10z"/>
<path d="M4752 4586 c-24 -6 -41 -14 -37 -18 4 -3 21 -2 38 3 17 5 59 10 94
11 35 2 63 6 63 11 0 11 -109 7 -158 -7z"/>
<path d="M4934 4583 c7 -7 108 -5 115 3 2 2 -24 4 -59 4 -35 0 -60 -3 -56 -7z"/>
<path d="M5108 4583 c-10 -2 -18 -9 -18 -15 0 -6 10 -8 21 -5 16 4 19 3 11 -5
-9 -9 -7 -17 5 -31 17 -18 16 -19 -6 -36 -15 -11 -21 -23 -16 -31 4 -7 2 -16
-6 -21 -11 -6 -11 -11 -2 -20 6 -6 9 -19 6 -28 -4 -12 -3 -13 5 -3 11 16 54
12 60 -5 2 -9 -7 -13 -25 -13 -32 0 -61 -15 -50 -26 3 -4 13 -1 21 5 8 7 24
10 36 6 12 -4 20 -2 20 5 0 7 8 10 19 7 19 -5 38 19 26 31 -3 3 -5 0 -5 -6 0
-7 -4 -12 -10 -12 -27 0 -5 21 33 31 23 7 46 16 50 20 12 9 -22 59 -39 59 -9
0 -14 11 -14 30 0 17 -4 31 -10 31 -5 1 -16 2 -22 3 -7 0 -13 8 -13 16 0 15
-43 23 -77 13z m72 -153 c-24 -15 -31 -11 -18 10 9 13 16 16 23 9 7 -7 5 -13
-5 -19z"/>
<path d="M3725 4570 c-3 -5 -1 -10 4 -10 6 0 11 5 11 10 0 6 -2 10 -4 10 -3 0
-8 -4 -11 -10z"/>
<path d="M4635 4546 c-45 -21 -131 -55 -177 -70 -10 -3 -18 -10 -18 -16 0 -5
25 -1 58 11 100 36 202 81 202 90 0 13 -10 11 -65 -15z"/>
<path d="M5326 4519 c-5 -25 -2 -36 13 -51 20 -18 20 -17 18 15 -2 17 -8 40
-14 51 -9 16 -11 15 -17 -15z"/>
<path d="M5370 4528 c0 -19 2 -20 10 -8 13 19 13 30 0 30 -5 0 -10 -10 -10
-22z"/>
<path d="M3803 4508 c-30 -10 -46 -28 -25 -28 15 0 62 25 62 33 0 4 -1 7 -2 6
-2 -1 -18 -6 -35 -11z"/>
<path d="M5386 4499 c-16 -23 -16 -24 10 -27 23 -3 26 -7 22 -37 -3 -27 0 -35
15 -39 15 -4 18 -11 14 -28 -5 -19 -2 -23 19 -24 27 -2 41 28 30 70 -4 15 -1
26 7 29 9 4 9 6 0 6 -15 1 -18 31 -3 31 6 0 10 4 10 10 0 15 -46 23 -66 12
-14 -8 -21 -6 -30 5 -9 14 -13 13 -28 -8z m90 -15 c-3 -9 -6 -20 -6 -25 0 -5
-4 -9 -10 -9 -5 0 -10 11 -10 25 0 16 6 25 16 25 11 0 14 -5 10 -16z m-6 -70
c0 -8 -4 -12 -10 -9 -5 3 -10 13 -10 21 0 8 5 12 10 9 6 -3 10 -13 10 -21z"/>
<path d="M4270 4469 c0 -5 5 -7 10 -4 6 3 10 8 10 11 0 2 -4 4 -10 4 -5 0 -10
-5 -10 -11z"/>
<path d="M4365 4429 c-16 -5 -75 -16 -130 -25 -95 -14 -170 -32 -163 -39 6 -6
231 26 249 36 10 5 26 9 36 9 10 1 32 7 48 15 23 10 25 13 10 13 -11 0 -33 -4
-50 -9z"/>
<path d="M5005 4418 c1 -18 8 -23 30 -23 16 0 30 6 33 13 2 7 -5 12 -17 12
-12 0 -21 5 -21 10 0 6 -6 10 -13 10 -8 0 -13 -10 -12 -22z"/>
<path d="M4958 4393 c7 -3 16 -2 19 1 4 3 -2 6 -13 5 -11 0 -14 -3 -6 -6z"/>
<path d="M5268 4367 c-9 -6 -19 -29 -22 -49 -6 -30 -4 -38 9 -38 8 0 15 -8 15
-17 0 -13 3 -14 11 -6 9 9 16 4 29 -21 26 -52 84 -116 95 -105 5 6 5 13 -3 21
-7 7 -12 30 -12 51 0 46 -26 84 -55 79 -15 -3 -17 -2 -8 9 14 17 5 71 -10 62
-5 -3 -15 1 -22 10 -10 13 -15 14 -27 4z"/>
<path d="M4075 4330 c28 -12 37 -12 30 0 -3 6 -16 10 -28 9 -21 0 -21 -1 -2
-9z"/>
<path d="M5505 4300 c3 -5 8 -10 11 -10 2 0 4 5 4 10 0 6 -5 10 -11 10 -5 0
-7 -4 -4 -10z"/>
<path d="M4620 4280 c-8 -5 -10 -10 -5 -10 6 0 17 5 25 10 8 5 11 10 5 10 -5
0 -17 -5 -25 -10z"/>
<path d="M4570 4270 c0 -5 4 -10 9 -10 6 0 13 5 16 10 3 6 -1 10 -9 10 -9 0
-16 -4 -16 -10z"/>
<path d="M4508 4248 c-21 -11 -56 -22 -78 -25 -22 -3 -43 -10 -46 -15 -11 -17
139 23 160 43 19 18 0 16 -36 -3z"/>
<path d="M5510 4250 c0 -5 4 -19 9 -32 16 -40 24 -63 25 -70 1 -5 4 -8 9 -8
10 0 10 10 -3 55 -7 22 -14 46 -16 53 -4 14 -24 17 -24 2z"/>
<path d="M4220 4214 c0 -8 5 -12 10 -9 6 4 8 11 5 16 -9 14 -15 11 -15 -7z"/>
<path d="M4325 4190 c-18 -8 -17 -9 7 -9 15 -1 30 4 33 9 7 12 -12 12 -40 0z"/>
<path d="M4177 4170 c-32 -4 -61 -11 -65 -15 -9 -9 109 5 128 16 17 9 18 9
-63 -1z"/>
<path d="M5140 4150 c0 -5 9 -10 21 -10 11 0 17 5 14 10 -3 6 -13 10 -21 10
-8 0 -14 -4 -14 -10z"/>
<path d="M3900 4120 c0 -5 6 -10 14 -10 8 0 18 5 21 10 3 6 -3 10 -14 10 -12
0 -21 -4 -21 -10z"/>
<path d="M5415 4100 c3 -5 8 -10 11 -10 2 0 4 5 4 10 0 6 -5 10 -11 10 -5 0
-7 -4 -4 -10z"/>
<path d="M3850 4030 c0 -5 5 -10 10 -10 6 0 10 5 10 10 0 6 -4 10 -10 10 -5 0
-10 -4 -10 -10z"/>
<path d="M5580 4021 c0 -5 5 -13 10 -16 6 -3 10 -2 10 4 0 5 -4 13 -10 16 -5
3 -10 2 -10 -4z"/>
<path d="M4600 4004 c0 -14 3 -14 15 -4 8 7 15 14 15 16 0 2 -7 4 -15 4 -8 0
-15 -7 -15 -16z"/>
<path d="M3880 4000 c0 -5 5 -10 10 -10 6 0 10 5 10 10 0 6 -4 10 -10 10 -5 0
-10 -4 -10 -10z"/>
<path d="M5611 3964 c0 -11 3 -14 6 -6 3 7 2 16 -1 19 -3 4 -6 -2 -5 -13z"/>
<path d="M5681 3904 c-34 -29 -39 -48 -16 -70 13 -14 15 -14 15 0 0 9 11 34
25 56 29 46 20 51 -24 14z"/>
<path d="M5752 3824 c-18 -20 -32 -43 -32 -51 0 -9 -6 -13 -15 -9 -16 6 -20
-5 -6 -19 6 -8 82 -233 97 -292 2 -7 8 -13 13 -13 7 0 8 50 4 143 -3 78 -7
171 -7 206 -1 35 -6 66 -12 68 -5 2 -24 -13 -42 -33z"/>
<path d="M5620 3154 c0 -10 28 -34 41 -34 7 0 4 9 -9 20 -21 20 -32 25 -32 14z"/>
<path d="M4908 3135 c-9 -10 16 -55 31 -55 12 0 11 3 -1 18 -9 9 -17 23 -19
30 -3 7 -7 10 -11 7z"/>
<path d="M5708 3083 c7 -3 16 -2 19 1 4 3 -2 6 -13 5 -11 0 -14 -3 -6 -6z"/>
<path d="M4992 3034 c10 -10 20 -15 24 -12 3 4 -5 12 -18 18 -22 12 -22 12 -6
-6z"/>
<path d="M5488 3013 c7 -3 16 -2 19 1 4 3 -2 6 -13 5 -11 0 -14 -3 -6 -6z"/>
<path d="M5040 3000 c0 -5 5 -10 11 -10 5 0 7 5 4 10 -3 6 -8 10 -11 10 -2 0
-4 -4 -4 -10z"/>
<path d="M5070 2961 c0 -8 16 -60 27 -91 4 -8 5 -18 5 -22 -1 -5 5 -8 14 -8
10 0 13 -6 9 -19 -6 -21 8 -30 45 -25 14 1 31 3 38 3 20 2 14 18 -10 25 -17 4
-20 8 -11 17 8 8 3 19 -19 41 -22 23 -32 27 -38 18 -10 -16 -34 22 -39 60 -1
12 -21 14 -21 1z"/>
<path d="M5845 2930 c-3 -5 -1 -10 4 -10 6 0 11 5 11 10 0 6 -2 10 -4 10 -3 0
-8 -4 -11 -10z"/>
<path d="M5517 2868 c-3 -8 5 -14 20 -14 19 -2 22 1 12 12 -14 17 -25 18 -32
2z"/>
<path d="M5258 2745 c13 -9 26 -14 29 -11 8 8 3 12 -27 21 l-25 7 23 -17z"/>
<path d="M5560 2689 c0 -5 5 -7 10 -4 6 3 10 8 10 11 0 2 -4 4 -10 4 -5 0 -10
-5 -10 -11z"/>
<path d="M5597 2645 c6 -17 25 -15 31 3 2 7 -5 12 -17 12 -14 0 -19 -5 -14
-15z"/>
<path d="M5370 2640 c0 -5 7 -10 16 -10 8 0 12 5 9 10 -3 6 -10 10 -16 10 -5
0 -9 -4 -9 -10z"/>
<path d="M5310 2620 c0 -5 6 -10 14 -10 8 0 18 5 21 10 3 6 -3 10 -14 10 -12
0 -21 -4 -21 -10z"/>
<path d="M5030 2569 c0 -5 5 -7 10 -4 6 3 10 8 10 11 0 2 -4 4 -10 4 -5 0 -10
-5 -10 -11z"/>
<path d="M5115 2570 c-3 -5 1 -10 10 -10 9 0 13 5 10 10 -3 6 -8 10 -10 10 -2
0 -7 -4 -10 -10z"/>
<path d="M5296 2505 c4 -8 12 -15 20 -15 8 0 14 7 14 15 0 8 -9 15 -20 15 -13
0 -18 -5 -14 -15z"/>
<path d="M5400 2511 c0 -5 9 -11 21 -14 16 -4 18 -3 8 9 -13 16 -29 19 -29 5z"/>
<path d="M5345 2500 c3 -5 8 -10 11 -10 2 0 4 5 4 10 0 6 -5 10 -11 10 -5 0
-7 -4 -4 -10z"/>
<path d="M5428 2473 c7 -3 16 -2 19 1 4 3 -2 6 -13 5 -11 0 -14 -3 -6 -6z"/>
<path d="M5527 2473 c-12 -11 -8 -33 6 -33 8 0 22 9 32 20 18 19 17 20 -7 20
-13 0 -28 -3 -31 -7z"/>
<path d="M5460 2450 c0 -5 5 -10 10 -10 6 0 10 5 10 10 0 6 -4 10 -10 10 -5 0
-10 -4 -10 -10z"/>
<path d="M5610 2455 c0 -3 10 -10 23 -15 22 -9 22 -9 -4 -9 -31 -1 -76 -30
-46 -31 9 0 17 5 17 10 0 6 11 10 23 10 30 0 40 10 26 27 -11 13 -39 18 -39 8z"/>
<path d="M5469 2399 c26 -21 37 -19 28 6 -4 8 -17 15 -29 15 l-23 -1 24 -20z"/>
</g>
</svg>
