<?xml version="1.0" standalone="no"?>
<!DOCTYPE svg PUBLIC "-//W3C//DTD SVG 20010904//EN"
 "http://www.w3.org/TR/2001/REC-SVG-20010904/DTD/svg10.dtd">
<svg version="1.0" xmlns="http://www.w3.org/2000/svg"
 width="1200.000000pt" height="675.000000pt" viewBox="0 0 1200.000000 675.000000"
 preserveAspectRatio="xMidYMid meet">

<g transform="translate(0.000000,675.000000) scale(0.100000,-0.100000)"
fill="#000000" stroke="none">
<path d="M5833 6575 c-18 -20 -17 -49 1 -42 9 4 17 -2 21 -14 8 -23 21 -25 29
-3 9 22 8 24 -9 24 -8 0 -15 4 -15 10 0 14 35 30 67 30 25 -1 26 -2 11 -14
-22 -16 -23 -26 -3 -26 8 0 12 -6 10 -12 -3 -7 0 -20 5 -28 9 -13 11 -13 20 0
7 12 12 12 22 2 10 -10 10 -14 -1 -21 -7 -5 -11 -13 -7 -19 3 -6 2 -12 -4 -14
-6 -2 -5 -17 2 -41 10 -32 9 -40 -3 -48 -23 -14 -49 -11 -43 6 4 8 1 15 -5 15
-6 0 -11 -8 -11 -17 0 -10 -5 -25 -11 -33 -9 -12 -10 -12 -5 4 5 14 2 17 -10
12 -12 -4 -15 -2 -11 9 4 8 2 17 -3 20 -6 4 -10 1 -10 -4 0 -6 -7 -11 -15 -11
-8 0 -15 -5 -15 -11 0 -8 -4 -8 -14 0 -9 8 -16 8 -20 2 -4 -5 -2 -12 3 -15 11
-7 2 -46 -10 -46 -5 0 -9 12 -9 26 0 22 -2 25 -15 14 -8 -7 -15 -9 -15 -5 0 4
-7 2 -15 -5 -8 -7 -15 -18 -14 -24 0 -7 2 -6 6 2 5 14 23 16 23 3 0 -15 -32
-22 -46 -10 -8 6 -21 9 -29 5 -8 -3 -15 -1 -15 4 0 5 11 12 25 16 27 7 34 24
9 24 -8 0 -12 5 -9 10 3 6 19 10 35 10 16 0 32 5 35 10 4 6 -8 10 -29 10 -29
0 -34 3 -29 18 3 9 13 25 21 35 8 9 12 20 7 25 -4 4 -10 1 -12 -5 -3 -7 -13
-23 -24 -35 -16 -19 -20 -21 -28 -8 -6 8 -14 11 -18 6 -4 -4 1 -14 11 -22 11
-7 17 -17 13 -20 -4 -4 -15 4 -25 16 -16 20 -17 31 -9 74 5 28 11 53 13 55 2
3 21 5 42 5 31 1 37 4 35 21 -1 11 4 23 10 28 19 13 -125 -4 -153 -18 -14 -7
-38 -15 -55 -19 -16 -4 -48 -15 -70 -26 -92 -44 -196 -90 -204 -90 -5 0 -14
-7 -21 -15 -7 -8 -20 -15 -30 -15 -9 0 -25 -9 -35 -20 -10 -11 -22 -20 -28
-20 -7 0 -69 -47 -117 -88 -3 -3 1 -7 8 -9 20 -8 14 -20 -13 -25 -22 -5 -24
-3 -14 11 13 18 -140 -140 -156 -161 -6 -7 -31 -38 -56 -68 -25 -30 -57 -77
-71 -105 -14 -27 -32 -63 -40 -80 -23 -43 -34 -70 -63 -160 -14 -44 -33 -91
-42 -104 -17 -26 -44 -131 -44 -168 1 -12 -4 -35 -10 -50 -26 -64 -32 -308
-12 -453 29 -209 16 -890 -21 -1100 -18 -103 -35 -413 -32 -570 4 -147 28
-253 101 -446 50 -132 110 -229 223 -365 58 -69 68 -88 74 -132 8 -64 -1 -82
-84 -167 -148 -154 -274 -253 -388 -306 -30 -15 -94 -50 -141 -80 -47 -30 -90
-54 -95 -54 -12 0 -111 -51 -156 -81 -20 -13 -56 -36 -80 -50 -112 -69 -128
-80 -128 -93 0 -8 6 -17 13 -19 6 -3 2 -6 -10 -6 -12 -1 -29 -4 -37 -7 -12 -4
-15 -2 -11 9 4 9 -1 16 -15 20 -13 3 -23 0 -27 -9 -3 -7 -23 -19 -45 -24 -22
-6 -54 -25 -71 -41 -17 -17 -33 -26 -35 -20 -4 13 -32 15 -32 2 0 -4 -20 -14
-45 -21 -24 -7 -50 -19 -56 -26 -6 -8 -18 -14 -25 -14 -8 0 -14 -7 -14 -15 0
-10 -10 -15 -27 -16 -56 -1 -88 -8 -98 -22 -6 -8 -23 -15 -38 -15 -15 0 -35
-6 -45 -14 -9 -9 -22 -13 -29 -11 -6 2 -14 -1 -18 -6 -3 -6 -1 -11 6 -11 27 0
-4 -15 -35 -17 -18 -1 -60 -15 -93 -32 -33 -17 -67 -31 -76 -31 -23 0 -87 -29
-87 -40 0 -6 -8 -10 -17 -10 -10 0 -36 -7 -58 -16 -22 -8 -48 -17 -57 -21 -10
-3 -18 -9 -18 -13 0 -5 -26 -16 -57 -26 -32 -10 -67 -23 -78 -30 -19 -11 -76
-27 -84 -24 -2 1 -8 -5 -13 -14 -5 -9 -17 -16 -26 -16 -10 0 -23 -5 -30 -12
-7 -7 -12 -9 -12 -5 0 3 -12 2 -26 -3 -19 -7 -31 -7 -40 1 -21 17 -17 34 4 18
16 -13 16 -12 3 4 -13 16 -13 20 0 28 8 5 10 9 4 10 -5 0 -21 2 -35 3 -14 2
-31 1 -37 -1 -21 -8 -15 -21 12 -25 18 -2 22 -7 16 -17 -8 -13 -12 -13 -26 -1
-14 12 -18 12 -25 0 -13 -20 -42 7 -35 31 5 14 1 19 -10 19 -12 0 -16 -6 -12
-20 3 -13 0 -20 -9 -20 -8 0 -14 6 -14 14 0 7 -9 16 -20 19 -13 3 -20 0 -20
-9 0 -13 -25 -19 -57 -15 -7 1 -13 -5 -13 -13 0 -8 -5 -18 -12 -22 -8 -5 -9
-2 -5 9 3 9 2 19 -3 22 -4 3 -10 0 -12 -6 -4 -11 -60 -20 -121 -19 -22 1 -52
-8 -71 -19 -46 -29 -108 -37 -137 -18 -13 8 -48 15 -78 16 -102 1 -151 -51
-210 -227 -22 -67 -72 -192 -111 -277 -38 -85 -70 -161 -70 -168 0 -7 -4 -17
-9 -22 -5 -6 -23 -45 -39 -88 l-30 -77 5215 0 c4963 0 5215 1 5208 18 -4 9
-14 37 -23 62 -8 25 -24 59 -34 75 -10 17 -18 37 -18 45 0 8 -10 35 -23 59
-16 34 -34 51 -70 70 -52 26 -98 34 -109 18 -4 -6 -13 -4 -23 6 -9 10 -23 17
-32 17 -8 0 -44 16 -79 36 -35 20 -64 33 -64 30 0 -3 -15 3 -32 13 -32 17 -99
43 -127 47 -8 2 -17 7 -20 12 -3 5 -21 14 -40 20 -26 9 -36 9 -42 1 -5 -8 -8
-6 -10 6 -3 13 -15 18 -44 20 -21 1 -41 7 -43 13 -2 6 -10 8 -17 5 -8 -3 -29
7 -46 21 -17 14 -35 27 -40 27 -16 2 -23 5 -69 27 -25 12 -60 22 -77 22 -18 0
-33 5 -33 11 0 6 -7 9 -15 5 -8 -3 -15 -1 -15 4 0 6 -7 10 -15 10 -8 0 -15 4
-15 9 0 10 -38 24 -62 22 -20 -2 -78 26 -78 38 0 5 -11 12 -25 15 -14 4 -25
10 -25 15 0 4 -11 6 -25 3 -16 -3 -25 0 -25 8 0 7 -6 10 -13 7 -22 -8 -77 20
-71 36 5 14 -13 27 -51 34 -11 2 -21 8 -23 13 -2 6 -10 10 -17 10 -7 0 -15 6
-18 13 -3 9 -9 9 -26 -1 -24 -14 -43 -8 -36 11 3 7 -22 24 -60 42 -36 17 -65
33 -65 36 0 7 -39 22 -51 20 -4 0 -15 9 -24 19 -10 11 -25 20 -34 20 -9 0 -26
7 -37 15 -12 8 -24 11 -28 8 -4 -4 -14 3 -22 16 -12 16 -23 22 -40 18 -13 -2
-24 -1 -24 2 0 12 -67 51 -87 51 -12 0 -28 7 -37 15 -8 8 -22 15 -32 15 -10 0
-26 8 -36 17 -10 9 -26 17 -36 18 -31 4 -82 27 -82 37 0 5 -5 6 -10 3 -5 -3
-10 -1 -10 5 0 6 -4 9 -9 5 -5 -3 -16 2 -25 10 -8 9 -30 18 -47 20 -18 2 -36
10 -40 17 -5 7 -9 9 -9 4 0 -4 -10 -2 -22 6 -13 8 -50 23 -83 33 -33 10 -69
24 -80 30 -16 10 -80 35 -105 40 -5 1 -25 10 -112 48 -27 11 -56 29 -65 39 -9
10 -51 37 -92 60 -42 23 -92 53 -111 67 -19 14 -41 31 -49 36 -8 6 -105 98
-215 206 -210 204 -281 266 -303 261 -7 -2 -13 2 -13 8 0 5 -37 34 -82 63
-128 82 -136 87 -156 87 -36 0 -50 31 -61 140 -14 143 -9 857 7 886 7 13 25
24 49 28 33 5 54 24 156 134 140 153 180 217 212 337 8 31 12 62 8 70 -3 8 -2
23 2 33 33 75 23 428 -14 499 -33 66 -52 76 -121 70 -47 -5 -62 -3 -66 8 -3 8
-3 19 1 26 11 17 14 141 4 160 -4 8 -10 38 -13 65 -2 27 -7 74 -10 104 -9 77
-16 162 -21 255 -6 101 -10 139 -44 355 -13 88 -40 178 -58 201 -8 9 -11 23
-7 32 3 9 -3 23 -15 34 -12 9 -21 24 -21 31 0 8 -6 12 -15 8 -8 -3 -15 -1 -15
4 0 6 4 10 10 10 6 0 5 10 -2 25 -6 14 -15 25 -20 25 -4 0 -8 6 -8 13 0 14
-123 156 -148 171 -7 4 -30 26 -50 48 -19 22 -52 48 -71 58 -20 10 -65 41
-100 69 -35 28 -69 51 -75 51 -6 0 -23 8 -36 17 -36 26 -253 121 -336 148 -39
12 -82 30 -95 38 -33 21 -172 58 -239 64 -30 2 -66 8 -80 13 -14 5 -59 11
-100 15 -41 3 -85 9 -97 12 -16 4 -23 1 -23 -10 0 -9 -4 -18 -9 -21 -5 -3 -8
2 -7 12 1 15 -11 17 -94 19 -73 2 -98 -1 -107 -12z m142 -25 c3 -5 1 -10 -4
-10 -6 0 -11 5 -11 10 0 6 2 10 4 10 3 0 8 -4 11 -10z m-255 -4 c0 -3 -4 -8
-10 -11 -5 -3 -10 -1 -10 4 0 6 5 11 10 11 6 0 10 -2 10 -4z m300 -10 c0 -8 6
-16 13 -19 6 -2 9 -8 5 -12 -12 -13 -38 4 -38 25 0 11 5 20 10 20 6 0 10 -6
10 -14z m175 -36 c3 -5 -7 -18 -22 -30 -19 -15 -35 -19 -59 -15 -26 4 -36 1
-44 -14 -12 -23 0 -34 27 -25 10 3 14 2 8 -3 -6 -4 -10 -21 -9 -38 1 -16 -3
-40 -9 -53 -9 -18 -8 -25 2 -31 9 -6 4 -8 -13 -8 -29 0 -45 15 -27 26 18 11 1
43 -20 38 -12 -3 -16 0 -12 9 3 8 14 14 24 14 10 0 19 4 19 9 0 15 -15 20 -30
11 -9 -5 -19 -5 -27 2 -17 14 -16 28 1 28 8 0 17 13 21 29 6 27 9 29 61 30 32
0 54 -4 54 -11 0 -7 5 -6 15 2 10 9 12 17 5 30 -8 15 -6 17 10 13 11 -3 23 -9
25 -13z m40 0 c-3 -5 -10 -10 -16 -10 -5 0 -9 5 -9 10 0 6 7 10 16 10 8 0 12
-4 9 -10z m-620 -32 c-4 -18 -7 -41 -7 -51 1 -9 -3 -15 -9 -12 -10 7 -12 55
-3 79 12 30 27 17 19 -16z m710 12 c3 -5 -1 -10 -9 -10 -9 0 -16 5 -16 10 0 6
4 10 9 10 6 0 13 -4 16 -10z m-799 -25 c1 -14 -2 -25 -7 -25 -5 0 -9 11 -9 25
0 33 15 33 16 0z m695 -33 c-6 -2 -11 -12 -11 -22 0 -11 -10 -20 -27 -23 -37
-7 -41 -1 -13 23 l23 20 -26 0 c-15 0 -26 -3 -26 -7 4 -22 -3 -32 -17 -26 -13
5 -10 11 12 34 19 20 31 26 38 19 19 -19 33 -11 29 18 l-5 27 17 -30 c10 -19
12 -31 6 -33z m-750 35 c-1 -12 -15 -9 -19 4 -3 6 1 10 8 8 6 -3 11 -8 11 -12z
m815 -1 c18 -19 18 -26 -1 -26 -8 0 -15 -5 -15 -11 0 -5 -4 -7 -10 -4 -13 8
-13 55 1 55 6 0 17 -6 25 -14z m159 4 c7 -11 -35 -31 -48 -23 -11 6 12 33 29
33 7 0 16 -5 19 -10z m55 -4 c0 -2 -7 -9 -15 -16 -12 -10 -15 -10 -15 4 0 9 7
16 15 16 8 0 15 -2 15 -4z m-924 -53 c-3 -7 4 -15 15 -18 36 -12 21 -31 -23
-30 -24 1 -42 5 -40 11 1 5 8 9 15 9 6 0 13 10 15 23 2 12 -1 22 -7 22 -6 0
-11 5 -11 10 0 6 8 5 20 -2 11 -7 18 -18 16 -25z m734 -13 c-45 -46 -70 -52
-70 -15 0 27 9 32 28 13 13 -13 42 6 42 28 0 8 9 14 19 14 16 0 13 -7 -19 -40z
m-980 0 c0 -5 -2 -10 -4 -10 -3 0 -8 5 -11 10 -3 6 -1 10 4 10 6 0 11 -4 11
-10z m1315 -10 c3 -5 -1 -10 -9 -10 -9 0 -16 5 -16 10 0 6 4 10 9 10 6 0 13
-4 16 -10z m-1375 -4 c0 -3 -4 -8 -10 -11 -5 -3 -10 -1 -10 4 0 6 5 11 10 11
6 0 10 -2 10 -4z m210 -6 c0 -5 -7 -10 -15 -10 -8 0 -15 5 -15 10 0 6 7 10 15
10 8 0 15 -4 15 -10z m750 -9 c0 -5 -9 -19 -20 -32 -17 -21 -21 -22 -30 -9
-14 22 -12 33 5 26 9 -3 15 0 15 9 0 8 7 15 15 15 8 0 15 -4 15 -9z m127 -6
c9 -9 12 -22 8 -33 -6 -15 -9 -14 -18 8 -6 14 -16 28 -22 32 -6 5 -5 8 3 8 7
0 20 -7 29 -15z m-1037 -15 c0 -5 -4 -10 -10 -10 -5 0 -10 5 -10 10 0 6 5 10
10 10 6 0 10 -4 10 -10z m232 -18 c6 -27 -3 -52 -19 -52 -10 0 -12 6 -8 21 5
15 4 19 -4 15 -11 -7 -16 26 -5 37 10 10 33 -4 36 -21z m452 12 c3 -8 2 -12
-4 -9 -6 3 -10 10 -10 16 0 14 7 11 14 -7z m149 -4 c5 -21 -8 -26 -32 -11 -7
5 -10 14 -7 20 11 18 33 13 39 -9z m362 10 c-3 -5 -10 -10 -16 -10 -5 0 -9 5
-9 10 0 6 7 10 16 10 8 0 12 -4 9 -10z m-860 -10 c3 -5 -1 -10 -10 -10 -9 0
-13 5 -10 10 3 6 8 10 10 10 2 0 7 -4 10 -10z m670 -8 c-3 -3 -11 0 -18 7 -9
10 -8 11 6 5 10 -3 15 -9 12 -12z m-475 -17 c-7 -9 -15 -13 -18 -10 -3 2 1 11
8 20 7 9 15 13 18 10 3 -2 -1 -11 -8 -20z m110 9 c0 -2 -7 -4 -15 -4 -8 0 -15
4 -15 10 0 5 7 7 15 4 8 -4 15 -8 15 -10z m680 7 c0 -5 -7 -14 -15 -21 -12
-10 -15 -10 -15 2 0 8 3 18 7 21 9 10 23 9 23 -2z m-1505 -11 c3 -5 1 -10 -6
-10 -6 0 -18 -8 -25 -17 -7 -10 -16 -15 -20 -10 -4 4 1 16 12 26 22 23 30 25
39 11z m165 -14 c0 -3 -4 -8 -10 -11 -5 -3 -10 -1 -10 4 0 6 5 11 10 11 6 0
10 -2 10 -4z m660 -21 c-7 -8 -17 -12 -22 -9 -5 3 -1 12 9 19 22 17 30 11 13
-10z m230 15 c0 -5 -4 -10 -10 -10 -5 0 -10 5 -10 10 0 6 5 10 10 10 6 0 10
-4 10 -10z m330 0 c0 -5 -7 -10 -16 -10 -8 0 -12 5 -9 10 3 6 10 10 16 10 5 0
9 -4 9 -10z m-810 -21 c0 -11 -4 -18 -10 -14 -5 3 -7 12 -3 20 7 21 13 19 13
-6z m550 11 c0 -5 -7 -10 -15 -10 -8 0 -15 5 -15 10 0 6 7 10 15 10 8 0 15 -4
15 -10z m-900 -10 c0 -5 -2 -10 -4 -10 -3 0 -8 5 -11 10 -3 6 -1 10 4 10 6 0
11 -4 11 -10z m1025 -27 c4 -14 2 -23 -4 -23 -6 0 -11 6 -11 14 0 8 -3 23 -6
33 -5 12 -4 15 3 8 6 -5 14 -20 18 -32z m-560 17 c3 -5 -3 -10 -14 -10 -12 0
-21 5 -21 10 0 6 6 10 14 10 8 0 18 -4 21 -10z m197 -12 c-6 -6 -15 -8 -19 -4
-4 4 -1 11 7 16 19 12 27 3 12 -12z m49 -1 c-13 -13 -26 -3 -16 12 3 6 11 8
17 5 6 -4 6 -10 -1 -17z m49 13 c0 -5 -4 -10 -10 -10 -5 0 -10 5 -10 10 0 6 5
10 10 10 6 0 10 -4 10 -10z m100 0 c0 -5 -5 -10 -11 -10 -5 0 -7 5 -4 10 3 6
8 10 11 10 2 0 4 -4 4 -10z m93 4 c9 -3 12 -14 9 -30 -3 -19 -7 -22 -14 -12
-7 11 -11 10 -21 -3 -11 -14 -15 -14 -42 3 l-30 18 31 -6 c26 -5 32 -2 37 15
6 23 8 24 30 15z m-675 -27 c5 -24 -15 -21 -21 4 -3 13 -1 19 6 16 7 -2 13
-11 15 -20z m817 13 c-3 -5 -11 -10 -16 -10 -6 0 -7 5 -4 10 3 6 11 10 16 10
6 0 7 -4 4 -10z m45 0 c-18 -12 -30 -13 -30 -2 0 4 10 9 22 9 18 2 20 0 8 -7z
m-560 -22 c0 -18 -2 -20 -9 -8 -6 8 -7 18 -5 22 9 14 14 9 14 -14z m238 -8 c0
-16 -4 -30 -9 -30 -10 0 -12 43 -2 53 10 10 10 10 11 -23z m-1038 16 c0 -3 -4
-8 -10 -11 -5 -3 -10 -1 -10 4 0 6 5 11 10 11 6 0 10 -2 10 -4z m1833 -29 c17
5 20 3 10 -7 -14 -15 -43 -6 -42 12 0 9 2 9 5 2 3 -7 15 -9 27 -7z m-1273 -7
c0 -5 -4 -10 -10 -10 -5 0 -10 5 -10 10 0 6 5 10 10 10 6 0 10 -4 10 -10z
m-102 -25 c1 -13 -3 -27 -8 -30 -6 -4 -10 7 -10 24 0 37 15 42 18 6z m502 -5
c0 -5 -5 -10 -11 -10 -5 0 -7 5 -4 10 3 6 8 10 11 10 2 0 4 -4 4 -10z m-1080
-10 c0 -5 -5 -10 -11 -10 -5 0 -7 5 -4 10 3 6 8 10 11 10 2 0 4 -4 4 -10z
m860 0 c0 -5 -2 -10 -4 -10 -3 0 -8 5 -11 10 -3 6 -1 10 4 10 6 0 11 -4 11
-10z m-540 -34 c0 -3 -4 -8 -10 -11 -5 -3 -10 -1 -10 4 0 6 5 11 10 11 6 0 10
-2 10 -4z m1925 -16 c-3 -5 -11 -10 -16 -10 -6 0 -7 5 -4 10 3 6 11 10 16 10
6 0 7 -4 4 -10z m-5 -174 c0 -3 -4 -8 -10 -11 -5 -3 -10 -1 -10 4 0 6 5 11 10
11 6 0 10 -2 10 -4z m0 -56 c0 -5 -2 -10 -4 -10 -3 0 -8 5 -11 10 -3 6 -1 10
4 10 6 0 11 -4 11 -10z m210 -40 c0 -5 -2 -10 -4 -10 -3 0 -8 5 -11 10 -3 6
-1 10 4 10 6 0 11 -4 11 -10z m-1484 -249 c0 -16 -3 -17 -14 -9 -12 10 -7 19
13 28 1 0 1 -9 1 -19z m-441 0 c3 -5 1 -12 -5 -16 -5 -3 -10 1 -10 9 0 18 6
21 15 7z m160 -31 c8 0 25 4 39 10 30 11 59 3 52 -15 -6 -17 10 -39 23 -30 7
3 9 15 6 26 -7 23 7 25 25 4 9 -11 23 -13 54 -8 36 5 39 4 29 -9 -7 -8 -27
-15 -44 -16 -18 0 -37 -6 -42 -11 -6 -6 -30 -11 -53 -11 -24 0 -55 -5 -69 -10
-18 -7 -33 -7 -46 0 -15 8 -19 7 -19 -5 0 -8 -7 -15 -15 -15 -16 0 -20 16 -6
24 5 3 9 17 9 31 0 32 35 76 40 51 2 -9 10 -16 17 -16z m313 -11 c-2 -6 -7
-10 -11 -10 -4 1 -19 1 -33 1 -14 0 -23 4 -19 10 8 14 68 13 63 -1z m52 1 c0
-5 -2 -10 -4 -10 -3 0 -8 5 -11 10 -3 6 -1 10 4 10 6 0 11 -4 11 -10z m55 -10
c-27 -12 -35 -12 -35 0 0 6 12 10 28 9 24 0 25 -1 7 -9z m-535 -86 c0 -8 -3
-14 -6 -14 -10 0 -33 27 -28 33 10 9 34 -4 34 -19z m-90 6 c0 -5 -5 -10 -11
-10 -5 0 -7 5 -4 10 3 6 8 10 11 10 2 0 4 -4 4 -10z m262 -22 c-9 -9 -15 -9
-24 0 -9 9 -7 12 12 12 19 0 21 -3 12 -12z m-362 -2 c0 -3 -4 -8 -10 -11 -5
-3 -10 -1 -10 4 0 6 5 11 10 11 6 0 10 -2 10 -4z m540 -36 c0 -5 -2 -10 -4
-10 -3 0 -8 5 -11 10 -3 6 -1 10 4 10 6 0 11 -4 11 -10z m-226 -55 c-4 -8 -11
-15 -16 -15 -6 0 -5 6 2 15 7 8 14 15 16 15 2 0 1 -7 -2 -15z m23 -40 c-15
-16 -22 -11 -13 10 3 9 10 13 16 10 6 -4 5 -11 -3 -20z m283 -16 c0 -5 -7 -9
-15 -9 -15 0 -20 12 -9 23 8 8 24 -1 24 -14z m-444 -21 c-11 -6 -14 -16 -10
-35 5 -18 3 -24 -5 -19 -6 4 -11 16 -11 26 0 24 33 66 39 49 2 -7 -4 -16 -13
-21z m365 22 c6 0 7 -4 4 -10 -10 -16 -45 -12 -45 6 0 11 5 14 16 10 9 -3 20
-6 25 -6z m-448 -50 c-2 -2 -8 2 -13 10 -8 13 -10 13 -10 1 0 -8 -2 -12 -5
-10 -2 3 -2 15 2 27 l6 23 12 -23 c6 -13 10 -25 8 -28z m361 44 c20 -8 11 -24
-15 -24 -10 0 -19 7 -19 15 0 16 9 19 34 9z m-134 -39 c-48 -19 -85 -19 -45 0
17 7 41 13 55 13 22 0 20 -1 -10 -13z m-270 -15 c0 -5 -4 -10 -9 -10 -6 0 -13
5 -16 10 -3 6 1 10 9 10 9 0 16 -4 16 -10z m484 -82 c-5 -8 3 -9 29 -5 22 3
37 1 39 -5 3 -8 10 -7 25 1 31 16 46 14 39 -6 -6 -16 -6 -16 12 0 17 16 44 25
29 10 -17 -16 16 -30 63 -26 l51 4 -7 -28 c-10 -49 -12 -51 -43 -58 -17 -4
-33 -11 -36 -16 -4 -5 0 -6 8 -3 12 4 33 -23 24 -32 -3 -4 -49 -4 -132 0 -33
1 -67 -1 -76 -5 -9 -5 -21 -3 -26 2 -8 8 -13 7 -17 0 -4 -6 -2 -11 5 -11 10 0
10 -3 1 -12 -8 -8 -15 -8 -28 2 -9 8 -28 14 -42 15 -30 0 -43 25 -13 25 12 0
21 6 21 16 0 8 -5 12 -11 8 -6 -3 -15 0 -20 7 -7 11 -9 10 -9 -4 0 -28 -22
-15 -26 15 -2 22 1 25 24 24 15 -1 32 -5 39 -9 6 -4 18 0 26 8 9 8 22 15 29
15 10 0 11 2 0 8 -13 9 -8 35 11 60 12 15 21 16 11 0z m327 -88 c28 -16 23
-32 -6 -18 -14 6 -25 15 -25 20 0 11 7 10 31 -2z m-959 -58 c-17 -5 -15 -22 3
-22 8 0 15 -7 15 -15 0 -8 -6 -15 -12 -15 -9 0 -9 -3 1 -9 12 -8 12 -12 -2
-25 -19 -19 -30 -21 -25 -4 3 7 -6 23 -19 36 -24 24 -31 52 -12 52 5 0 7 -6 3
-12 -4 -7 4 -3 16 9 13 12 28 19 34 16 6 -4 6 -8 -2 -11z m124 0 c18 -12 24
-52 8 -52 -8 0 -14 -4 -14 -9 0 -10 48 -2 55 9 7 11 55 -12 55 -27 0 -7 -9 -9
-22 -5 -23 5 -23 5 -5 -16 17 -19 20 -19 36 -4 10 9 16 20 14 25 -2 4 0 7 6 7
5 0 11 -6 14 -12 3 -9 9 -7 19 6 10 12 21 17 32 13 9 -4 14 -3 11 2 -3 5 4 12
15 16 11 4 20 15 20 26 0 12 4 17 11 13 6 -4 8 -20 5 -39 -6 -29 -4 -33 19
-37 19 -4 29 0 37 16 6 11 17 25 24 29 8 4 14 15 14 22 0 20 12 19 31 -3 19
-23 20 -52 2 -52 -10 0 -12 6 -8 21 6 17 3 20 -12 17 -13 -3 -18 -12 -18 -38
0 -27 -5 -36 -20 -38 -26 -6 -36 -22 -30 -49 3 -13 1 -23 -5 -23 -7 0 -9 -8
-5 -20 8 -26 -4 -48 -16 -29 -6 10 -9 11 -9 2 0 -19 -18 -16 -24 5 -3 9 -15
23 -27 30 -21 13 -21 13 -5 -9 9 -13 16 -26 16 -29 0 -13 -49 -4 -67 13 -22
19 -73 23 -73 5 0 -6 -3 -8 -6 -5 -4 4 -1 13 6 22 20 24 -6 18 -30 -7 l-21
-23 4 30 c3 21 9 30 22 28 15 -1 16 0 3 14 -13 12 -19 13 -36 2 -11 -7 -18
-18 -16 -24 3 -6 -1 -12 -8 -12 -7 0 -13 12 -13 26 0 14 -3 26 -6 26 -9 0 -39
33 -39 44 0 5 8 15 18 20 9 6 12 11 5 11 -6 0 -15 -5 -19 -11 -4 -8 -10 -7
-18 1 -8 9 -8 14 2 17 7 3 19 18 27 34 16 30 23 34 41 21z m863 -316 c-2 -3
-15 -7 -29 -11 -22 -5 -26 -3 -28 20 -3 41 6 46 35 19 14 -13 24 -26 22 -28z
m45 19 c-4 -8 -8 -15 -10 -15 -2 0 -4 7 -4 15 0 8 4 15 10 15 5 0 7 -7 4 -15z
m-121 -26 c4 -3 0 -12 -9 -20 -16 -12 -17 -12 -11 4 3 9 2 17 -4 17 -6 0 -7 5
-4 11 4 6 10 7 14 2 3 -4 10 -10 14 -14z m122 -109 c-3 -5 -12 -7 -20 -3 -21
7 -19 13 6 13 11 0 18 -4 14 -10z m-720 -40 c-4 -12 -1 -27 5 -35 7 -9 9 -23
4 -37 -4 -13 -7 -31 -5 -41 3 -19 -15 -47 -30 -47 -5 0 -9 11 -9 24 0 14 -4
27 -10 31 -5 3 -7 12 -4 20 3 7 1 22 -4 31 -11 19 13 68 28 59 5 -3 11 -1 15
5 11 17 17 11 10 -10z m685 -14 c0 -11 -19 -15 -25 -6 -3 5 1 10 9 10 9 0 16
-2 16 -4z m113 -63 c-6 -14 -53 -18 -53 -5 0 14 10 20 34 18 14 0 22 -6 19
-13z m-1245 -89 c34 -10 26 -22 -18 -26 -33 -3 -40 0 -40 14 0 19 18 22 58 12z
m1298 -35 c10 -16 -142 -17 -158 -1 -6 6 19 10 71 10 45 0 84 -4 87 -9z m1275
-44 c19 -48 18 -95 0 -95 -12 0 -91 74 -91 85 0 13 53 64 64 62 4 -2 17 -25
27 -52z m-1681 5 c0 -5 -4 -10 -10 -10 -5 0 -10 5 -10 10 0 6 5 10 10 10 6 0
10 -4 10 -10z m60 -20 c0 -5 -4 -10 -10 -10 -5 0 -10 5 -10 10 0 6 5 10 10 10
6 0 10 -4 10 -10z m65 0 c3 -5 1 -10 -4 -10 -6 0 -11 5 -11 10 0 6 2 10 4 10
3 0 8 -4 11 -10z m-25 -25 c7 -8 21 -15 31 -15 11 0 19 -5 19 -11 0 -6 9 -8
20 -4 11 3 20 2 20 -3 0 -5 15 -7 33 -5 88 10 123 10 129 -1 5 -8 8 -7 8 2 0
8 8 10 23 7 12 -3 55 -7 96 -9 42 -2 76 -8 81 -15 4 -7 28 -14 55 -17 35 -4
53 -13 70 -32 20 -23 21 -28 8 -40 -9 -10 -13 -28 -10 -52 5 -41 11 -55 39
-87 13 -14 18 -28 13 -42 -4 -12 -2 -21 4 -21 6 0 11 -7 11 -15 0 -8 6 -13 13
-11 6 1 9 1 5 -1 -5 -3 -8 -11 -8 -18 0 -8 -7 -21 -16 -30 -9 -9 -18 -30 -20
-46 -5 -40 -11 -49 -34 -49 -10 0 -23 -8 -29 -17 -5 -10 -13 -17 -18 -15 -4 2
-29 0 -54 -3 -41 -6 -49 -3 -77 23 -19 18 -30 36 -26 45 3 8 -2 17 -10 20 -9
4 -16 13 -16 21 0 10 -6 13 -15 10 -8 -4 -15 -2 -15 3 0 15 -80 93 -96 93 -8
0 -13 4 -10 8 9 14 -25 69 -50 80 -13 7 -24 16 -24 22 0 5 -17 10 -39 10 -23
0 -44 6 -51 15 -11 13 -15 13 -21 3 -6 -9 -9 -6 -9 10 0 12 -6 22 -14 22 -8 0
-21 9 -29 20 -8 11 -25 20 -38 19 -30 -1 -56 5 -65 14 -4 4 -15 7 -25 7 -12 0
-21 10 -25 28 -3 15 -7 32 -9 38 -2 6 11 10 33 9 21 -1 43 3 50 8 7 5 15 7 18
4 4 -3 15 3 27 14 25 23 31 23 47 4z m-538 -14 c3 -1 13 -22 22 -48 14 -41 14
-49 2 -61 -12 -12 -16 -11 -27 9 -7 13 -13 27 -14 31 0 3 -10 15 -23 26 -12
11 -20 26 -17 34 5 13 15 14 57 9z m2033 -61 c10 -16 88 -55 110 -55 14 0 20
-8 21 -24 1 -13 6 -26 11 -30 13 -8 36 -78 30 -94 -2 -6 0 -24 4 -39 4 -15 4
-30 -1 -33 -5 -3 -6 -16 -2 -28 8 -25 8 -44 -1 -69 -4 -10 -9 -25 -12 -33 -2
-8 -8 -15 -12 -15 -10 0 -1 135 9 146 5 4 4 12 -1 18 -12 14 -51 126 -44 126
15 0 -56 69 -95 91 -26 15 -48 32 -50 38 -5 14 25 15 33 1z m251 -124 c-6 -67
-11 -84 -20 -75 -7 6 -14 198 -8 204 3 3 12 -9 20 -27 10 -24 12 -53 8 -102z
m-2226 120 c0 -3 -4 -8 -10 -11 -5 -3 -10 -1 -10 4 0 6 5 11 10 11 6 0 10 -2
10 -4z m157 -72 c-3 -3 -12 -4 -19 -1 -8 3 -5 6 6 6 11 1 17 -2 13 -5z m-107
-14 c0 -5 -2 -10 -4 -10 -3 0 -8 5 -11 10 -3 6 -1 10 4 10 6 0 11 -4 11 -10z
m1885 -35 c19 -19 35 -42 35 -52 0 -10 12 -35 26 -56 14 -21 28 -53 31 -71 7
-47 -14 -56 -32 -14 -7 18 -25 49 -40 68 -44 58 -82 160 -60 160 3 0 21 -16
40 -35z m-1625 -101 c0 -4 -8 -13 -17 -20 -16 -12 -16 -13 -2 -14 18 0 58 -40
41 -40 -7 0 -12 -7 -12 -15 0 -9 -6 -18 -12 -20 -7 -2 -26 -10 -43 -17 -38
-15 -49 -17 -109 -24 -42 -5 -48 -4 -43 10 4 9 1 16 -6 16 -6 0 -1 7 11 16 12
8 19 20 16 26 -4 7 -2 8 4 4 7 -4 22 0 34 8 12 9 29 16 38 16 8 0 30 14 49 30
32 29 51 37 51 24z m-368 -36 c2 -13 8 -23 13 -23 18 0 95 -92 95 -114 0 -10
-54 -31 -82 -31 -11 0 -16 5 -13 10 3 6 -2 10 -13 10 -24 0 -112 66 -112 84 0
29 38 63 69 61 31 -2 42 9 19 18 -8 3 -7 6 4 6 10 1 18 -8 20 -21z m2063 -128
c-4 -12 -9 -19 -12 -17 -3 3 -2 15 2 27 4 12 9 19 12 17 3 -3 2 -15 -2 -27z
m-20 -40 c3 -5 2 -10 -4 -10 -5 0 -13 5 -16 10 -3 6 -2 10 4 10 5 0 13 -4 16
-10z m-95 -54 c0 -3 -4 -8 -10 -11 -5 -3 -10 -1 -10 4 0 6 5 11 10 11 6 0 10
-2 10 -4z m160 -16 c0 -5 -4 -10 -10 -10 -5 0 -10 5 -10 10 0 6 5 10 10 10 6
0 10 -4 10 -10z m-2000 -260 c12 -8 9 -10 -12 -10 -15 0 -30 5 -33 10 -8 13
25 13 45 0z m138 -2 c6 -6 12 -16 12 -23 0 -15 -53 -28 -58 -14 -5 13 -18 11
-35 -5 -13 -13 -15 -11 -15 12 0 15 2 29 3 32 6 10 80 8 93 -2z m172 -148 c12
-8 11 -10 -7 -10 -13 0 -23 5 -23 10 0 13 11 13 30 0z m-55 -10 c-3 -5 -11
-10 -16 -10 -6 0 -7 5 -4 10 3 6 11 10 16 10 6 0 7 -4 4 -10z m-60 -10 c-4 -6
-1 -18 6 -26 10 -13 14 -12 32 3 13 13 34 18 68 16 57 -1 99 -24 99 -54 0 -18
2 -19 15 -9 8 7 15 8 15 3 0 -19 42 -12 47 8 7 24 51 45 65 31 5 -5 12 -29 15
-53 l6 -43 33 38 c34 39 59 44 77 14 22 -33 -58 -123 -87 -99 -15 13 -26 5
-26 -20 0 -9 -11 -24 -24 -33 -22 -14 -29 -14 -67 -1 -23 9 -43 14 -43 13 -19
-52 -45 -64 -102 -45 -33 11 -54 13 -66 6 -10 -5 -42 -11 -71 -13 -28 -2 -64
-8 -78 -14 -30 -12 -159 -26 -241 -27 -46 0 -60 4 -72 20 -9 11 -16 14 -16 8
0 -9 -17 -13 -49 -13 -27 0 -61 -4 -75 -10 -23 -8 -28 -6 -41 20 -9 17 -21 30
-28 30 -8 0 -8 -3 2 -9 10 -7 8 -12 -10 -25 -30 -20 -39 -10 -45 48 -8 74 0
85 37 50 29 -27 31 -27 24 -6 -9 31 3 82 21 82 7 0 21 -14 29 -30 17 -33 35
-32 35 3 0 41 12 67 30 67 10 0 20 -6 23 -12 3 -9 9 -7 20 7 13 17 28 20 107
21 50 1 94 4 97 7 3 3 11 3 18 1 7 -3 37 8 66 25 40 22 68 30 107 30 35 1 51
-3 47 -9z m289 2 c5 -9 -30 -59 -37 -52 -3 3 -3 17 0 33 5 25 26 37 37 19z
m-34 -266 c0 -3 -4 -8 -10 -11 -5 -3 -10 -1 -10 4 0 6 5 11 10 11 6 0 10 -2
10 -4z m-237 -46 c48 0 119 -36 98 -50 -8 -4 -11 -16 -7 -28 5 -15 1 -24 -16
-33 -16 -9 -23 -9 -26 0 -2 6 -8 11 -13 11 -6 0 -6 -7 0 -19 6 -10 8 -21 5
-24 -9 -9 -35 4 -28 14 3 5 -2 9 -10 9 -9 0 -14 -8 -13 -20 1 -11 5 -20 10
-20 4 0 5 -4 2 -10 -9 -14 -45 -12 -45 3 0 8 -4 7 -10 -3 -8 -13 -10 -12 -10
3 0 23 -16 22 -23 -2 -3 -15 -13 -18 -48 -17 -24 1 -51 5 -59 8 -8 3 -34 11
-58 17 -32 9 -49 21 -63 46 -11 18 -26 36 -34 39 -22 8 -18 19 14 38 22 12 39
14 65 8 20 -4 34 -4 31 1 -3 4 10 11 29 15 74 13 142 21 154 18 8 -2 32 -4 55
-4z m507 -27 c-1 -18 -18 -35 -24 -24 -4 6 -4 16 -1 21 7 12 25 13 25 3z
m-381 -67 c7 -8 8 -17 3 -20 -6 -3 -12 3 -15 14 -6 24 -4 25 12 6z m371 -50
c-14 -14 -24 0 -16 21 6 15 8 15 16 3 6 -9 5 -19 0 -24z m-356 -57 c-13 -14
-27 -19 -46 -17 -15 3 -29 0 -31 -5 -3 -11 -87 -19 -87 -8 0 12 78 48 125 58
50 11 65 1 39 -28z m-4 -179 c0 -5 -4 -10 -10 -10 -5 0 -10 5 -10 10 0 6 5 10
10 10 6 0 10 -4 10 -10z m1544 -362 c96 -70 178 -140 171 -147 -3 -3 -9 -1
-13 5 -4 6 -34 30 -67 55 -55 40 -65 44 -112 41 l-53 -2 0 34 c0 19 -3 41 -6
50 -10 25 4 19 80 -36z m11 -68 c22 -9 21 -10 -13 -14 -12 -2 -27 3 -33 11 -9
10 -7 13 7 12 11 0 28 -4 39 -9z m186 -107 c13 -16 12 -17 -3 -4 -10 7 -18 15
-18 17 0 8 8 3 21 -13z m-109 -71 c11 -24 18 -46 15 -48 -2 -3 -12 12 -21 33
-9 21 -24 49 -33 63 -17 24 -17 25 1 10 11 -8 28 -34 38 -58z m-25 -304 c-3
-8 -6 -5 -6 6 -1 11 2 17 5 13 3 -3 4 -12 1 -19z m-77 -129 c-7 -11 -14 -18
-17 -15 -3 3 0 12 7 21 18 21 23 19 10 -6z m-40 -73 c0 -2 -7 -6 -15 -10 -8
-3 -15 -1 -15 4 0 6 7 10 15 10 8 0 15 -2 15 -4z m-5362 -586 c-13 -20 -28
-27 -28 -12 0 10 22 32 32 32 5 0 3 -9 -4 -20z m7007 -250 c3 -5 -1 -10 -10
-10 -9 0 -13 5 -10 10 3 6 8 10 10 10 2 0 7 -4 10 -10z"/>
<path d="M5600 4780 c0 -5 5 -10 11 -10 5 0 7 5 4 10 -3 6 -8 10 -11 10 -2 0
-4 -4 -4 -10z"/>
<path d="M6396 4187 c3 -10 9 -15 12 -12 3 3 0 11 -7 18 -10 9 -11 8 -5 -6z"/>
<path d="M6160 3129 c0 -11 5 -17 10 -14 6 3 10 13 10 21 0 8 -4 14 -10 14 -5
0 -10 -9 -10 -21z"/>
<path d="M5820 2901 c-14 -5 -40 -6 -59 -3 -24 4 -32 2 -27 -6 11 -18 103 -15
110 3 3 8 4 15 3 14 -1 -1 -13 -4 -27 -8z"/>
<path d="M5868 2903 c7 -3 16 -2 19 1 4 3 -2 6 -13 5 -11 0 -14 -3 -6 -6z"/>
<path d="M5772 6538 c-16 -16 -15 -38 1 -38 14 0 39 35 30 44 -9 9 -18 7 -31
-6z"/>
<path d="M5675 6490 c3 -6 20 -10 37 -10 39 0 29 12 -13 17 -18 2 -28 -1 -24
-7z"/>
<path d="M5813 6493 c-18 -6 -16 -23 1 -23 17 0 30 16 19 23 -5 2 -14 2 -20 0z"/>
<path d="M5910 6482 c0 -5 7 -13 16 -16 10 -4 14 -1 12 6 -5 15 -28 23 -28 10z"/>
<path d="M5770 6461 c0 -6 4 -13 10 -16 6 -3 7 1 4 9 -7 18 -14 21 -14 7z"/>
<path d="M5910 6440 c13 -8 13 -11 -2 -26 -16 -17 -19 -17 -36 -1 -23 21 -42
22 -42 2 0 -8 -5 -15 -11 -15 -5 0 -8 -4 -5 -8 2 -4 26 -7 53 -6 43 2 49 5 60
31 10 26 10 29 -10 30 -17 2 -19 0 -7 -7z"/>
<path d="M5776 6405 c-3 -9 0 -15 9 -15 16 0 20 16 6 24 -5 3 -11 -1 -15 -9z"/>
<path d="M10070 846 c0 -2 7 -6 15 -10 8 -3 15 -1 15 4 0 6 -7 10 -15 10 -8 0
-15 -2 -15 -4z"/>
</g>
</svg>
