<?xml version="1.0" standalone="no"?>
<!DOCTYPE svg PUBLIC "-//W3C//DTD SVG 20010904//EN"
 "http://www.w3.org/TR/2001/REC-SVG-20010904/DTD/svg10.dtd">
<svg version="1.0" xmlns="http://www.w3.org/2000/svg"
 width="900.000000pt" height="512.000000pt" viewBox="0 0 900.000000 512.000000"
 preserveAspectRatio="xMidYMid meet">

<g transform="translate(0.000000,512.000000) scale(0.100000,-0.100000)"
fill="#000000" stroke="none">
<path d="M4316 4969 c-141 -18 -427 -96 -598 -163 -226 -88 -387 -181 -543
-314 -143 -121 -230 -307 -276 -587 -35 -215 -20 -760 26 -942 l13 -52 -53
-16 c-70 -20 -102 -57 -109 -127 -3 -29 -5 -143 -3 -253 l2 -200 33 -75 c18
-41 45 -99 60 -129 31 -62 112 -155 153 -177 15 -8 52 -38 81 -67 50 -50 54
-52 105 -52 47 0 53 -2 53 -21 0 -11 4 -24 9 -30 5 -5 12 -20 16 -34 5 -19 4
-22 -4 -10 -10 13 -12 13 -21 0 -8 -12 -10 -11 -10 8 0 13 4 20 10 17 6 -3 10
-1 10 4 0 6 -4 11 -9 11 -5 0 -12 8 -14 17 -3 10 -5 -12 -6 -49 -1 -42 3 -68
10 -68 6 0 8 9 4 23 -4 15 -4 18 3 8 6 -8 15 -10 22 -6 7 4 3 -5 -9 -21 -18
-25 -20 -36 -13 -69 6 -33 12 -40 30 -39 18 1 20 -1 10 -13 -9 -11 -9 -16 3
-24 12 -7 11 -9 -3 -9 -14 0 -15 -4 -7 -30 6 -16 15 -27 20 -24 5 3 6 -2 3
-10 -6 -17 16 -63 61 -127 18 -26 41 -61 50 -79 10 -18 21 -38 26 -44 5 -6 41
-60 79 -119 93 -144 248 -327 439 -520 201 -204 338 -303 476 -347 22 -7 45
-16 50 -20 20 -16 225 -41 341 -43 119 -2 119 -2 179 32 151 86 198 139 301
341 35 70 76 144 89 165 50 73 277 504 329 626 45 105 80 202 138 387 5 19 26
97 45 175 32 130 35 158 40 334 4 124 1 250 -8 355 -13 151 -15 263 -10 463 2
61 -3 94 -20 140 -19 52 -23 90 -29 285 -9 252 -15 285 -111 593 -56 178 -102
267 -216 414 -85 109 -152 169 -305 269 -173 115 -305 176 -478 219 -125 32
-151 35 -267 34 -70 -1 -159 -6 -197 -10z m231 -965 c-3 -3 -12 -4 -19 -1 -8
3 -5 6 6 6 11 1 17 -2 13 -5z m63 -35 c0 -5 -19 -8 -42 -7 -38 1 -39 2 -10 5
18 2 30 8 27 14 -3 5 1 6 9 3 9 -3 16 -10 16 -15z m50 11 c0 -5 -5 -10 -11
-10 -5 0 -7 5 -4 10 3 6 8 10 11 10 2 0 4 -4 4 -10z m110 0 c0 -5 -14 -7 -32
-3 -46 8 -48 13 -5 13 21 0 37 -4 37 -10z m41 -8 c-7 -2 -18 1 -23 6 -8 8 -4
9 13 5 13 -4 18 -8 10 -11z m134 8 c3 -6 -1 -7 -9 -4 -18 7 -21 14 -7 14 6 0
13 -4 16 -10z m-82 -26 c-4 -11 -7 -11 -19 1 -19 19 -18 24 5 18 12 -3 17 -11
14 -19z m-343 7 c0 -5 -12 -8 -26 -8 -18 0 -22 2 -13 8 18 11 39 11 39 0z
m-60 -5 c0 -2 -11 -6 -25 -8 -13 -3 -22 -1 -19 3 5 9 44 13 44 5z m223 -20 c4
-10 1 -13 -9 -9 -7 3 -14 9 -14 14 0 14 17 10 23 -5z m-223 -36 c0 -5 -4 -10
-10 -10 -5 0 -10 5 -10 10 0 6 5 10 10 10 6 0 10 -4 10 -10z m18 -60 c-7 -10
-14 -18 -15 -16 -6 6 9 36 18 36 5 0 4 -9 -3 -20z m49 0 c1 -11 -3 -20 -8 -20
-6 0 -7 5 -4 10 3 6 1 10 -5 10 -6 0 -8 5 -5 10 10 16 21 11 22 -10z m33 -1
c0 -5 5 -7 10 -4 6 3 10 1 10 -4 0 -16 -16 -13 -30 4 -9 10 -9 15 -1 15 6 0
11 -5 11 -11z m-179 -22 c-10 -9 -11 -8 -5 6 3 10 9 15 12 12 3 -3 0 -11 -7
-18z m129 -11 c0 -11 -19 -15 -25 -6 -3 5 1 10 9 10 9 0 16 -2 16 -4z m80 -6
c0 -5 -5 -10 -11 -10 -5 0 -7 -5 -3 -11 3 -6 0 -15 -7 -20 -11 -7 -10 -9 3 -9
10 0 22 9 28 21 11 20 12 20 25 2 20 -25 18 -38 -1 -22 -15 12 -16 11 -9 -10
5 -18 4 -22 -6 -15 -7 4 -38 8 -68 8 -49 1 -57 4 -68 26 -6 13 -9 27 -6 30 3
3 8 -1 10 -8 9 -24 34 -41 51 -35 22 9 43 29 36 36 -8 7 5 27 17 27 5 0 9 -4
9 -10z m98 -17 c12 -3 25 -10 29 -16 3 -6 1 -7 -5 -3 -7 4 -12 3 -12 -2 0 -6
12 -13 26 -16 40 -10 24 -14 -26 -7 -27 4 -44 12 -42 19 1 7 -3 11 -10 10 -6
-2 -14 6 -16 16 -3 15 0 17 14 11 11 -4 29 -10 42 -12z m-170 -28 c-3 -3 -9 2
-12 12 -6 14 -5 15 5 6 7 -7 10 -15 7 -18z m232 15 c0 -5 -4 -10 -10 -10 -5 0
-10 5 -10 10 0 6 5 10 10 10 6 0 10 -4 10 -10z m83 -1 c-6 -6 -9 -19 -6 -28 4
-12 3 -13 -5 -2 -6 8 -12 9 -16 3 -7 -12 -46 -4 -46 10 0 5 9 4 20 -2 15 -8
21 -6 30 10 6 11 16 20 22 20 9 0 9 -3 1 -11z m54 5 c-3 -3 -12 -4 -19 -1 -8
3 -5 6 6 6 11 1 17 -2 13 -5z m-427 -12 c0 -5 -6 -16 -12 -25 -14 -19 -58 -31
-58 -16 0 5 11 9 25 9 14 0 25 5 25 11 0 6 -7 9 -15 5 -8 -3 -15 -1 -15 4 0 7
17 15 43 19 4 0 7 -3 7 -7z m665 -2 c3 -5 1 -10 -4 -10 -6 0 -11 5 -11 10 0 6
2 10 4 10 3 0 8 -4 11 -10z m-265 -21 c0 -6 -4 -7 -10 -4 -5 3 -10 11 -10 16
0 6 5 7 10 4 6 -3 10 -11 10 -16z m-385 -9 c3 -5 1 -10 -4 -10 -6 0 -11 5 -11
10 0 6 2 10 4 10 3 0 8 -4 11 -10z m180 -21 c-4 -5 -13 -9 -21 -9 -12 0 -12 2
-2 14 14 15 32 11 23 -5z m-65 -139 c0 -5 -10 -10 -22 -10 -19 0 -20 2 -8 10
19 13 30 13 30 0z m137 3 c-4 -3 -2 -12 5 -20 10 -12 7 -13 -18 -7 -35 8 -43
14 -21 14 10 0 17 5 17 10 0 6 5 10 12 10 6 0 8 -3 5 -7z m-87 -7 c0 -11 -19
-15 -25 -6 -3 5 1 10 9 10 9 0 16 -2 16 -4z m530 -26 c0 -5 -8 -10 -17 -10
-15 0 -16 2 -3 10 19 12 20 12 20 0z m-705 -18 c-3 -3 -11 0 -18 7 -9 10 -8
11 6 5 10 -3 15 -9 12 -12z m38 -9 c-5 -13 -2 -15 12 -10 15 6 16 5 5 -8 -11
-13 -15 -13 -21 -3 -12 18 -11 38 1 38 5 0 6 -8 3 -17z m113 -20 c-6 -6 -36 9
-36 18 0 5 9 4 20 -3 10 -7 18 -14 16 -15z m-36 -10 c0 -1 -8 -7 -18 -12 -13
-7 -19 -6 -19 2 0 7 9 13 19 13 10 0 18 -1 18 -3z m70 -3 c0 -5 -2 -10 -4 -10
-3 0 -8 5 -11 10 -3 6 -1 10 4 10 6 0 11 -4 11 -10z m-120 -10 c0 -5 -5 -10
-11 -10 -5 0 -7 5 -4 10 3 6 8 10 11 10 2 0 4 -4 4 -10z m85 -20 c-10 -11 -20
-18 -23 -16 -5 6 21 35 32 36 5 0 1 -9 -9 -20z m-145 6 c0 -3 -4 -8 -10 -11
-5 -3 -10 -1 -10 4 0 6 5 11 10 11 6 0 10 -2 10 -4z m210 -2 c0 -4 -8 -13 -17
-20 -10 -7 -14 -16 -10 -20 4 -5 12 -3 16 5 7 10 10 9 14 -3 4 -9 13 -16 21
-16 7 0 17 -12 21 -27 6 -26 8 -27 19 -10 12 15 15 15 26 2 7 -8 17 -15 23
-15 6 0 1 10 -10 23 -32 35 -35 46 -13 40 11 -3 18 -8 16 -12 -6 -9 2 -20 43
-56 31 -28 33 -29 20 -5 -8 14 -22 31 -31 38 -18 13 -26 48 -9 37 5 -3 12 -1
16 5 8 13 25 3 25 -13 0 -8 -3 -8 -9 2 -5 7 -11 9 -14 4 -12 -19 8 -30 60 -35
6 -1 9 -8 5 -16 -4 -11 -1 -13 8 -7 8 5 11 4 6 -3 -3 -5 0 -13 6 -15 10 -4 10
-6 0 -6 -7 -1 -20 8 -29 19 -24 28 -39 25 -20 -3 11 -17 12 -28 5 -41 -5 -10
-8 -20 -5 -23 3 -2 8 5 12 16 6 21 25 29 25 11 0 -5 7 -7 14 -4 8 3 36 -9 62
-27 29 -19 49 -28 52 -21 5 15 33 3 54 -22 11 -15 13 -26 7 -38 -6 -12 -6 -18
1 -18 5 0 10 6 11 13 0 8 2 8 6 -2 3 -7 -7 -24 -23 -38 -29 -24 -29 -24 -4
-17 24 6 24 6 5 -9 -27 -21 -42 -4 -22 26 9 13 12 29 7 36 -6 11 -9 10 -16 0
-8 -13 -10 -23 -17 -66 -4 -26 -25 -53 -41 -53 -6 0 0 10 14 21 16 14 19 19 8
15 -22 -7 -23 1 -3 20 8 9 15 21 15 27 0 16 -49 -45 -50 -61 0 -19 -24 -9 -28
11 -2 10 3 17 12 17 8 0 18 4 21 10 4 6 -1 7 -11 3 -13 -5 -16 -3 -11 10 3 9
4 17 1 17 -2 0 -8 -9 -12 -20 -5 -13 -12 -16 -20 -11 -11 6 -10 11 3 25 9 9
12 16 6 16 -14 0 -29 -32 -24 -48 3 -6 9 -10 14 -6 5 3 9 1 9 -4 0 -6 -7 -13
-16 -16 -9 -4 -13 -2 -8 5 4 7 0 9 -14 5 -13 -5 -21 -1 -26 11 -3 10 -9 24
-12 31 -4 8 0 10 13 6 17 -6 17 -6 -1 8 -12 10 -19 30 -21 58 -2 40 -1 42 11
25 10 -13 14 -15 14 -4 0 8 -11 21 -23 30 -22 16 -23 16 -22 -7 1 -13 5 -27 8
-31 11 -10 8 -25 -3 -18 -5 3 -10 -2 -10 -12 0 -14 -2 -15 -9 -4 -5 8 -7 21
-4 30 4 14 3 14 -6 1 -9 -13 -12 -12 -17 8 -4 12 -10 22 -15 22 -16 0 -32 41
-20 53 14 14 14 37 0 37 -5 0 -7 -4 -4 -10 11 -18 -5 -31 -25 -20 -11 6 -21 6
-24 1 -4 -5 0 -12 6 -15 7 -3 2 -3 -11 0 -20 5 -23 4 -17 -12 17 -43 17 -48
-2 -24 -11 13 -18 29 -14 35 3 5 -2 4 -11 -4 -10 -8 -17 -9 -17 -3 0 6 -9 14
-20 17 -11 3 -20 14 -20 24 0 10 -9 26 -20 36 -10 9 -19 20 -18 24 3 23 -4 32
-21 26 -11 -3 -22 -2 -25 3 -3 6 6 12 20 15 18 3 33 -3 52 -23 16 -15 26 -32
25 -37 -4 -11 26 -11 45 1 16 9 44 -12 35 -27 -3 -6 -1 -7 6 -3 11 7 8 18 -12
43 -7 10 -14 10 -30 2 -16 -9 -23 -8 -32 5 -7 8 -16 12 -20 8 -5 -4 -5 -2 -1
5 4 7 14 9 23 6 13 -5 15 -2 10 11 -4 9 -3 15 2 11 5 -3 12 -1 16 5 7 11 25
14 25 4z m54 -8 c-3 -8 -1 -24 6 -35 6 -12 7 -21 1 -21 -5 0 -12 7 -15 16 -9
24 -7 54 4 54 5 0 7 -6 4 -14z m-205 -41 c18 -5 22 -4 16 5 -5 9 -4 11 3 6 9
-5 9 -13 1 -28 -8 -15 -8 -19 0 -13 16 9 41 -13 41 -36 0 -10 -9 -19 -22 -22
l-23 -4 23 -8 c12 -4 22 -12 22 -17 0 -6 -7 -8 -15 -4 -8 3 -15 0 -16 -7 0 -7
-5 -2 -11 11 -6 12 -18 22 -27 22 -14 0 -14 2 -1 11 11 8 9 9 -10 3 -14 -4
-36 -8 -49 -10 -13 -1 -27 -7 -30 -12 -8 -12 -42 -11 -34 1 4 6 0 8 -10 4 -11
-4 -14 -2 -11 8 5 11 10 12 25 2 16 -10 21 -9 28 2 5 8 16 11 25 8 10 -4 16
-1 16 7 0 15 -30 17 -47 3 -16 -12 -46 11 -39 30 6 15 -6 17 -20 3 -7 -7 -11
-6 -11 4 0 8 3 15 6 14 25 -2 51 4 47 11 -3 4 6 6 19 3 24 -4 29 -12 26 -39
-1 -8 5 -10 14 -7 8 3 15 1 15 -5 0 -6 7 -8 17 -4 14 5 13 8 -5 14 -32 12 -27
30 6 25 l27 -5 -22 18 c-12 10 -19 21 -16 25 4 3 9 2 12 -3 3 -4 17 -12 30
-16z m181 15 c0 -5 -2 -10 -4 -10 -3 0 -8 5 -11 10 -3 6 -1 10 4 10 6 0 11 -4
11 -10z m-243 -6 c-3 -3 -12 -4 -19 -1 -8 3 -5 6 6 6 11 1 17 -2 13 -5z m493
-79 c0 -5 -5 -3 -10 5 -5 8 -10 20 -10 25 0 6 5 3 10 -5 5 -8 10 -19 10 -25z
m-670 9 c0 -8 -19 -13 -24 -6 -3 5 1 9 9 9 8 0 15 -2 15 -3z m80 -4 c0 -5 -5
-10 -11 -10 -5 0 -7 5 -4 10 3 6 8 10 11 10 2 0 4 -4 4 -10z m620 -25 c-10
-12 -10 -15 4 -15 9 0 16 -7 16 -15 0 -20 -6 -19 -30 7 -19 21 -20 23 -3 30
26 10 27 9 13 -7z m325 -34 c2 -20 -1 -31 -9 -31 -8 0 -11 12 -8 36 5 41 11
39 17 -5z m-835 4 c0 -12 -19 -12 -23 0 -4 9 -1 12 9 8 7 -3 14 -7 14 -8z
m256 -12 c-1 -16 2 -34 7 -40 6 -9 6 -13 -2 -13 -11 0 -15 13 -12 36 1 7 -7
15 -16 19 -18 7 -15 10 24 24 1 1 1 -11 -1 -26z m-296 3 c0 -2 -7 -7 -16 -10
-8 -3 -12 -2 -9 4 6 10 25 14 25 6z m679 -21 c12 4 21 2 21 -4 0 -6 -13 -11
-30 -11 -22 0 -30 5 -30 18 0 13 2 14 9 3 5 -8 16 -11 30 -6z m-348 -12 c13
-16 12 -17 -3 -4 -10 7 -18 15 -18 17 0 8 8 3 21 -13z m-466 -3 c3 -5 1 -10
-4 -10 -6 0 -11 5 -11 10 0 6 2 10 4 10 3 0 8 -4 11 -10z m400 -18 c-3 -3 -11
0 -18 7 -9 10 -8 11 6 5 10 -3 15 -9 12 -12z m464 -10 c0 -14 -2 -13 -8 3 -8
19 -9 18 -12 -4 -5 -33 -24 -37 -27 -7 -1 16 4 26 16 29 23 5 32 -1 31 -21z
m-959 -3 c0 -6 -4 -7 -10 -4 -5 3 -10 11 -10 16 0 6 5 7 10 4 6 -3 10 -11 10
-16z m577 -21 c-3 -7 -5 -2 -5 12 0 14 2 19 5 13 2 -7 2 -19 0 -25z m66 -39
c-3 -10 -8 -19 -10 -19 -3 0 -3 9 0 21 4 15 2 19 -9 15 -8 -3 -14 -1 -14 3 0
14 24 20 31 8 4 -5 4 -18 2 -28z m-658 -9 c3 -5 1 -10 -4 -10 -6 0 -11 5 -11
10 0 6 2 10 4 10 3 0 8 -4 11 -10z m880 -50 c-3 -5 -12 -10 -18 -10 -7 0 -6 4
3 10 19 12 23 12 15 0z m-725 -25 c-8 -9 -8 -15 0 -20 5 -3 10 -1 10 5 0 6 5
8 12 4 7 -5 9 -2 5 8 -4 12 -1 14 13 11 11 -3 21 -10 23 -17 2 -6 2 -1 0 12
-5 32 13 27 20 -6 3 -16 16 -33 29 -40 l23 -11 -25 3 c-14 2 -47 0 -75 -5 -27
-5 -72 -11 -100 -15 -27 -3 -53 -11 -56 -16 -4 -7 -9 -6 -14 2 -8 13 -9 12 25
28 17 8 18 10 5 7 -16 -4 -21 0 -23 20 -1 18 2 23 13 19 8 -4 12 -10 9 -15 -3
-5 0 -9 5 -9 6 0 11 9 11 20 0 13 5 18 15 14 8 -4 15 -1 15 6 0 8 9 10 26 6
16 -4 23 -3 19 3 -3 7 0 8 10 5 11 -5 13 -10 5 -19z m120 -10 c17 -21 5 -31
-15 -12 -8 9 -15 18 -15 21 0 11 18 6 30 -9z m590 11 c0 -2 -8 -10 -17 -17
-16 -13 -17 -12 -4 4 13 16 21 21 21 13z m-540 -47 c0 -5 -4 -9 -8 -9 -5 0 -9
7 -9 15 0 8 4 12 9 9 4 -3 8 -9 8 -15z m-184 -85 c-5 -14 -9 -15 -19 -5 -9 9
-9 14 3 21 18 11 24 6 16 -16z m31 4 c-3 -8 -6 -5 -6 6 -1 11 2 17 5 13 3 -3
4 -12 1 -19z m676 5 c4 -3 2 -12 -5 -20 -9 -11 -8 -13 2 -11 21 5 29 -44 11
-74 -8 -16 -18 -28 -21 -28 -15 0 -19 14 -9 27 9 10 7 13 -6 13 -10 0 -16 3
-12 6 3 3 2 17 -3 30 -7 18 -6 24 4 24 9 0 12 7 9 20 -5 20 15 29 30 13z
m-749 -18 c-4 -8 -10 -15 -14 -15 -5 0 -15 -3 -24 -6 -9 -3 -16 -1 -16 5 0 7
10 16 23 21 32 13 37 12 31 -5z m1236 -35 c0 -5 -8 -10 -17 -10 -15 0 -16 2
-3 10 19 12 20 12 20 0z m50 6 c0 -3 -4 -8 -10 -11 -5 -3 -10 -1 -10 4 0 6 5
11 10 11 6 0 10 -2 10 -4z m40 -6 c0 -5 -5 -10 -11 -10 -5 0 -7 5 -4 10 3 6 8
10 11 10 2 0 4 -4 4 -10z m-1287 -25 c-7 -55 20 -101 73 -131 28 -15 26 -15
-61 -11 -77 3 -99 8 -153 36 -36 18 -62 37 -59 44 2 7 12 11 21 9 9 -2 30 8
47 22 17 15 39 26 49 26 9 0 23 6 29 14 18 21 56 15 54 -9z m1106 9 c11 10 25
14 35 10 15 -6 15 -8 -4 -26 -11 -10 -24 -16 -29 -13 -10 5 -81 -24 -91 -37
-10 -13 -60 -28 -60 -18 0 6 4 10 9 10 5 0 16 6 23 13 7 7 29 20 48 30 25 12
29 17 15 17 -16 0 -17 2 -5 9 8 6 18 7 22 5 4 -3 9 1 9 8 1 7 3 5 6 -5 4 -17
6 -17 22 -3z m-1039 -24 c0 -5 -7 -10 -15 -10 -8 0 -15 5 -15 10 0 6 7 10 15
10 8 0 15 -4 15 -10z m215 -60 c-18 -6 -18 -7 0 -14 10 -3 21 -2 25 4 4 6 14
8 24 4 28 -11 -1 -24 -54 -24 -25 -1 -62 -7 -82 -14 -36 -13 -52 -6 -25 11 22
14 47 56 47 81 0 23 0 23 41 -9 35 -28 39 -34 24 -39z m153 17 c-16 -47 -20
-48 -51 -11 l-28 33 28 -3 c35 -4 55 3 46 17 -3 6 -1 7 5 3 8 -5 8 -15 0 -39z
m-651 1 c-3 -8 -6 -5 -6 6 -1 11 2 17 5 13 3 -3 4 -12 1 -19z m1378 -7 c-8
-19 33 -99 57 -112 38 -20 106 18 127 71 l10 25 0 -25 c1 -15 -12 -39 -29 -59
l-31 -33 -77 7 c-45 4 -104 18 -142 33 -36 15 -70 26 -75 24 -6 -1 -11 7 -12
18 -1 11 2 20 8 20 5 0 9 -6 10 -12 0 -7 4 -3 9 10 5 12 16 23 25 24 8 0 21 1
28 2 6 1 17 6 24 12 17 17 74 12 68 -5z m-776 -86 c-8 -16 -25 -32 -39 -37
-21 -7 -22 -6 -9 4 27 22 50 65 44 84 -4 14 -3 14 6 -2 8 -17 8 -28 -2 -49z
m-515 -1 c4 -10 13 -13 27 -9 13 5 19 3 15 -3 -3 -5 1 -12 9 -15 10 -4 12 -1
8 10 -5 12 -3 14 8 7 8 -4 21 -9 29 -9 8 0 14 -6 12 -13 -2 -10 2 -10 19 -2
11 7 23 9 27 6 3 -3 1 -6 -5 -6 -6 0 -10 -16 -9 -35 1 -31 4 -35 26 -34 17 1
19 3 8 6 -10 2 -18 8 -18 13 0 6 10 6 23 1 12 -5 21 -16 21 -25 -1 -9 3 -16 8
-16 6 0 8 -7 4 -15 -3 -8 -1 -15 4 -15 6 0 10 6 10 14 0 7 7 19 15 26 8 7 12
17 8 23 -3 6 -1 7 6 3 6 -4 20 -2 29 4 9 7 3 -1 -14 -17 -16 -16 -28 -35 -26
-42 2 -7 -2 -17 -9 -22 -8 -5 -9 -9 -4 -9 6 0 17 4 25 10 10 6 19 2 32 -18 10
-15 18 -21 18 -14 0 6 6 12 14 12 7 0 21 12 31 26 9 14 19 23 22 20 4 -3 -1
-14 -10 -24 -10 -10 -15 -22 -12 -25 3 -4 2 -5 -2 -2 -3 3 -13 -1 -20 -7 -8
-7 -30 -11 -48 -10 -25 2 -38 -3 -50 -20 -15 -20 -17 -20 -11 -3 6 16 5 18 -5
8 -7 -7 -30 -13 -50 -13 -26 0 -39 -5 -44 -17 -5 -15 -4 -16 6 -5 7 6 20 12
28 12 10 0 4 -8 -14 -20 -31 -20 -50 -26 -41 -12 2 4 -5 9 -16 9 -20 2 -20 1
-2 -12 12 -9 15 -18 9 -22 -27 -21 -46 -51 -35 -58 6 -3 10 -3 9 2 -4 22 3 24
27 8 15 -9 24 -13 20 -7 -3 5 2 16 11 23 14 12 15 11 9 -9 -8 -25 5 -29 24 -7
9 11 16 12 25 5 13 -11 27 0 38 32 7 19 47 44 47 30 0 -6 -10 -12 -22 -16 -19
-5 -21 -8 -8 -16 11 -8 21 -4 38 16 12 14 22 20 22 14 0 -20 17 -1 22 24 4 19
1 23 -11 19 -9 -2 -1 4 18 15 19 11 38 28 41 37 7 19 40 30 40 15 0 -5 -10
-18 -22 -30 -12 -11 -16 -20 -9 -20 6 0 22 11 35 25 13 14 27 25 32 25 4 0 3
-5 -4 -12 -18 -18 -15 -31 6 -24 16 6 16 5 0 -7 -9 -7 -15 -22 -14 -33 2 -11
-8 -29 -23 -43 -14 -13 -21 -21 -15 -18 15 8 57 -40 43 -49 -6 -3 -8 -12 -5
-20 3 -8 2 -14 -2 -14 -4 0 -12 -11 -19 -25 -6 -14 -7 -25 -2 -25 5 0 9 5 9
10 0 6 5 10 10 10 6 0 10 -11 10 -24 0 -13 5 -26 12 -28 22 -8 10 -210 -13
-214 -8 -1 -18 -3 -24 -5 -5 -2 -25 3 -42 11 -34 15 -46 50 -18 50 8 0 15 -5
15 -11 0 -5 -5 -7 -12 -3 -7 5 -8 3 -3 -5 5 -9 11 -9 17 -3 15 15 0 32 -27 32
-19 0 -23 -4 -19 -17 5 -17 5 -17 -9 0 -16 19 -37 23 -37 7 0 -13 -37 -13 -45
0 -4 6 -15 8 -25 5 -10 -3 -21 -1 -25 5 -3 5 2 10 13 10 11 0 22 7 26 15 6 18
1 19 -24 5 -13 -7 -21 -7 -25 0 -12 19 -22 10 -18 -15 3 -13 14 -27 24 -30 10
-4 19 -12 19 -20 0 -10 7 -11 33 -3 17 6 40 15 50 19 10 5 17 5 17 0 0 -13
-28 -34 -38 -28 -4 3 -14 2 -22 -4 -10 -5 -11 -9 -3 -9 7 0 10 -7 7 -17 -5
-16 -4 -16 8 -2 21 25 61 44 66 30 2 -6 7 -9 12 -6 4 3 14 -3 21 -12 12 -15
12 -16 -3 -10 -13 4 -18 1 -18 -9 0 -10 -6 -14 -14 -11 -10 4 -13 1 -9 -9 7
-19 -6 -18 -29 2 -17 16 -20 15 -53 -22 -34 -37 -43 -58 -27 -67 4 -3 14 2 22
11 13 14 12 15 -4 9 -15 -6 -17 -5 -7 6 6 8 22 12 35 10 13 -3 27 0 31 7 11
18 -1 23 -24 10 -17 -8 -21 -8 -21 3 0 17 41 30 53 18 16 -16 2 -46 -22 -49
-17 -3 -22 -8 -18 -24 4 -14 2 -18 -9 -14 -8 3 -17 -1 -21 -10 -9 -24 1 -25
42 -4 48 25 57 25 28 1 -12 -10 -20 -21 -18 -23 5 -5 -13 -8 -47 -9 -22 0 -24
-19 -2 -19 8 0 13 -4 10 -9 -10 -16 -41 -5 -38 13 2 9 -2 16 -8 16 -19 0 -10
-39 13 -56 15 -11 16 -15 5 -11 -25 9 -48 -2 -41 -19 7 -19 -12 -18 -32 2 -8
9 -22 13 -31 10 -9 -4 -12 -2 -8 5 3 6 18 9 32 6 14 -3 31 -3 37 0 16 6 6 53
-11 53 -20 0 -17 18 4 29 13 7 23 6 30 -1 9 -9 12 -8 12 6 0 13 -5 17 -20 13
-10 -3 -21 0 -22 5 -8 22 -35 -21 -31 -46 3 -16 1 -26 -7 -26 -6 0 -10 6 -7
13 2 6 -3 21 -12 31 -15 18 -15 19 2 13 9 -4 17 -2 17 3 0 6 -7 10 -17 10 -9
0 -14 3 -11 6 8 7 34 12 73 14 l30 2 -35 15 c-19 8 -47 23 -61 34 -14 10 -29
16 -32 12 -10 -9 2 -23 19 -23 9 0 22 -7 30 -15 13 -13 13 -15 1 -15 -8 0 -30
-7 -48 -16 -22 -10 -26 -13 -11 -10 13 2 21 2 18 -1 -3 -4 2 -15 11 -26 17
-19 17 -19 -3 -13 -17 5 -23 2 -28 -18 -3 -13 -3 -33 0 -43 5 -17 5 -17 -6 0
-6 10 -9 25 -6 33 3 9 2 12 -5 9 -5 -4 -9 -17 -8 -28 2 -36 0 -39 -17 -22 -15
14 -15 18 0 40 14 22 15 25 1 25 -8 0 -15 -7 -15 -15 0 -8 -4 -15 -10 -15 -5
0 -12 -16 -16 -35 -3 -19 -10 -33 -14 -30 -5 3 -6 13 -3 24 3 12 -2 20 -16 24
-13 3 -21 0 -21 -7 0 -13 -37 -19 -45 -6 -2 4 3 14 13 21 15 13 16 12 3 -3
-15 -20 -2 -25 17 -6 9 9 8 16 -4 29 -16 18 -12 39 7 39 6 0 8 -9 4 -20 -5
-15 -3 -18 9 -14 12 5 15 2 10 -10 -3 -9 -2 -16 4 -16 17 0 20 24 4 39 -7 8
-12 25 -9 38 3 15 0 22 -7 20 -6 -3 -10 -10 -9 -16 3 -10 -10 -15 -29 -12 -5
0 -8 -7 -8 -16 0 -9 -3 -13 -7 -10 -10 10 -11 60 -2 78 6 11 3 15 -9 14 -10 0
-23 -4 -29 -8 -6 -4 -14 -1 -16 5 -4 8 -6 7 -6 -4 -1 -23 18 -33 25 -14 3 9
10 13 16 10 14 -9 -21 -44 -38 -37 -8 3 -12 9 -9 13 3 5 1 11 -5 15 -5 3 -10
-2 -10 -12 0 -15 -2 -15 -10 -3 -6 10 -1 22 22 41 16 15 27 32 24 38 -5 7 0 8
11 4 14 -5 15 -3 6 7 -8 9 -16 9 -30 1 -11 -7 -13 -10 -4 -11 11 0 11 -3 0
-16 -12 -14 -14 -14 -25 1 -11 14 -13 13 -19 -14 -4 -20 -13 -31 -23 -31 -15
0 -15 2 -2 10 9 6 11 13 5 18 -16 12 -18 35 -2 29 11 -4 13 0 10 13 -3 10 -10
17 -16 14 -9 -3 -12 19 -11 73 1 100 2 103 17 99 6 -1 9 -1 5 1 -5 3 -8 10 -8
17 0 7 -6 21 -14 32 -15 19 -15 19 -30 -1 -8 -11 -16 -15 -16 -8 0 6 5 15 10
18 6 4 7 11 4 17 -5 7 -2 9 7 6 11 -4 15 5 16 41 2 72 7 94 21 97 8 2 8 0 1
-3 -8 -4 -8 -7 0 -13 8 -5 9 -14 2 -33 -8 -21 -7 -25 4 -21 7 3 14 13 14 22 0
64 5 103 14 109 6 4 8 0 4 -9 -4 -12 -1 -14 15 -10 15 4 17 7 6 13 -7 5 -10 9
-6 9 3 0 14 3 22 6 12 5 15 2 10 -9 -4 -12 -1 -14 14 -10 19 4 19 6 4 23 -8
11 -19 17 -24 14 -4 -3 -8 -1 -8 5 0 5 14 15 30 23 17 7 30 17 30 22 0 4 9 6
20 3 13 -3 20 0 20 10 0 12 2 12 16 -1 17 -17 25 -20 23 -8 -4 23 3 34 17 28
14 -5 15 -4 5 8 -8 10 -9 16 -1 21 5 3 10 0 10 -7 0 -10 3 -9 10 2 6 9 5 17
-3 22 -8 5 -6 9 6 14 12 4 16 13 12 25 -4 11 -2 19 4 19 6 0 11 -5 11 -11 0
-5 4 -7 10 -4 14 9 -11 44 -27 38 -9 -3 -11 0 -7 10 4 12 0 14 -18 11 -21 -4
-21 -4 -3 5 28 13 32 13 39 -5z m1144 -28 c3 -3 2 -9 -2 -13 -4 -4 -11 -1 -16
7 -8 12 -10 12 -10 1 0 -7 12 -25 28 -39 15 -13 21 -21 15 -18 -8 4 -13 1 -14
-6 0 -7 -4 -3 -10 10 -5 13 -13 21 -17 18 -7 -4 -32 34 -32 48 0 5 51 -2 58
-8z m-2335 -36 c6 -22 -17 -34 -32 -16 -15 18 -2 60 14 46 7 -6 15 -19 18 -30z
m1377 36 c0 -2 -7 -9 -15 -16 -13 -11 -14 -10 -9 4 5 14 24 23 24 12z m985 -5
c3 -5 1 -12 -5 -16 -5 -3 -10 1 -10 9 0 18 6 21 15 7z m-2545 -28 c6 -76 6
-192 -1 -208 -7 -17 -8 -16 -10 10 -9 113 -6 215 6 215 2 0 4 -8 5 -17z m1605
-43 c-4 -12 -9 -19 -12 -17 -3 3 -2 15 2 27 4 12 9 19 12 17 3 -3 2 -15 -2
-27z m216 2 c-22 -41 -61 -67 -61 -41 0 5 4 8 9 5 4 -3 16 3 26 14 10 11 15
20 11 20 -4 0 -1 6 6 14 17 19 22 12 9 -12z m-501 -2 c-6 -11 -12 -20 -14 -20
-2 0 -2 9 1 20 3 11 9 20 15 20 5 0 4 -9 -2 -20z m-1013 4 c-3 -3 -12 -4 -19
-1 -8 3 -5 6 6 6 11 1 17 -2 13 -5z m1382 -30 c-6 -8 -9 -20 -6 -28 4 -10 1
-13 -8 -9 -11 4 -12 10 -4 24 5 11 7 24 4 29 -3 6 1 7 10 4 12 -5 13 -10 4
-20z m36 0 c-8 -9 -15 -20 -15 -25 0 -6 -5 -7 -10 -4 -6 4 -4 12 5 21 8 9 15
20 15 25 0 6 5 7 10 4 6 -4 4 -12 -5 -21z m785 -19 c0 -5 -5 -3 -10 5 -5 8
-10 20 -10 25 0 6 5 3 10 -5 5 -8 10 -19 10 -25z m-290 9 c0 -8 -19 -13 -24
-6 -3 5 1 9 9 9 8 0 15 -2 15 -3z m-1990 -34 c0 -5 -5 -10 -11 -10 -5 0 -7 5
-4 10 3 6 8 10 11 10 2 0 4 -4 4 -10z m2325 -10 c-3 -5 -12 -10 -18 -10 -7 0
-6 4 3 10 19 12 23 12 15 0z m-2280 -62 c-4 -18 -7 -39 -8 -45 0 -7 -5 -13
-10 -13 -5 0 -7 -9 -4 -19 3 -14 1 -18 -9 -14 -14 5 -30 -39 -20 -56 4 -5 0
-13 -7 -18 -8 -4 -16 -14 -19 -22 -3 -12 -9 -10 -26 7 -23 23 -21 47 6 57 14
5 15 4 5 -6 -7 -7 -12 -22 -12 -33 1 -19 2 -20 6 -2 3 10 14 34 24 53 10 18
19 45 19 58 0 16 6 25 15 25 9 0 15 9 15 23 0 25 7 37 23 37 6 0 7 -13 2 -32z
m1385 22 c0 -5 -4 -10 -10 -10 -5 0 -10 5 -10 10 0 6 5 10 10 10 6 0 10 -4 10
-10z m-1545 -51 c-4 -5 -1 -9 4 -9 6 0 11 -5 11 -11 0 -6 -7 -8 -16 -5 -8 3
-12 2 -9 -4 3 -5 -2 -22 -12 -37 -16 -26 -16 -27 0 -14 22 18 22 0 0 -20 -10
-9 -24 -25 -31 -35 -11 -17 -12 -15 -7 16 4 19 7 45 8 58 1 12 5 22 8 22 4 0
12 13 19 30 7 16 16 27 21 24 5 -3 7 -10 4 -15z m1375 -39 c-14 -11 -29 -20
-35 -20 -5 0 1 9 15 20 14 11 30 20 35 20 6 0 -1 -9 -15 -20z m-1247 -55 c-3
-9 -8 -14 -10 -11 -3 3 -2 9 2 15 9 16 15 13 8 -4z m-153 -59 c0 -7 -9 -16
-20 -19 -23 -6 -26 3 -8 21 16 16 28 15 28 -2z m254 -24 c0 -15 4 -21 12 -18
8 3 11 0 7 -11 -5 -13 -3 -14 18 -3 13 7 21 9 17 5 -4 -5 -3 -14 3 -22 9 -10
8 -13 -4 -13 -9 0 -19 -5 -23 -12 -4 -7 -3 -8 4 -4 8 5 10 1 6 -9 -8 -20 -51
-13 -74 12 -13 14 -13 15 0 11 11 -4 16 1 16 13 0 11 -3 19 -6 19 -3 0 -5 14
-6 30 -1 23 3 30 15 28 9 -2 16 -13 15 -26z m1501 -2 c-3 -5 -12 -10 -18 -10
-7 0 -6 4 3 10 19 12 23 12 15 0z m-805 -10 c0 -5 -2 -10 -4 -10 -3 0 -8 5
-11 10 -3 6 -1 10 4 10 6 0 11 -4 11 -10z m-970 -10 c0 -5 -4 -10 -10 -10 -5
0 -10 5 -10 10 0 6 5 10 10 10 6 0 10 -4 10 -10z m1015 -59 c-3 -3 -10 1 -15
9 -8 12 -10 10 -10 -7 0 -26 -15 -31 -24 -7 -3 8 -2 13 3 10 4 -3 14 7 21 22
l12 27 9 -24 c5 -13 7 -26 4 -30z m-605 29 c0 -5 -5 -10 -11 -10 -5 0 -7 5 -4
10 3 6 8 10 11 10 2 0 4 -4 4 -10z m1836 -15 c4 -8 10 -12 15 -9 5 3 9 -2 9
-10 0 -9 5 -16 12 -16 6 0 9 3 5 6 -7 7 17 34 29 34 5 0 3 -5 -4 -12 -17 -17
-15 -28 4 -21 14 5 15 3 5 -15 -17 -33 -14 -44 9 -32 16 9 18 8 14 -5 -4 -8
-10 -15 -16 -15 -5 0 -6 -4 -3 -10 3 -5 -1 -10 -9 -10 -9 0 -16 -4 -16 -10 0
-5 -5 -10 -12 -10 -6 0 -3 9 7 20 19 21 7 28 -13 8 -17 -17 -100 -18 -106 -2
-3 8 -12 11 -21 8 -8 -4 -22 -1 -30 6 -8 6 -19 9 -24 6 -5 -4 -12 -2 -16 4 -3
5 1 10 11 10 9 0 23 8 30 18 13 16 14 16 8 -3 -5 -19 -5 -19 9 -2 20 24 30 21
22 -5 -5 -20 -4 -21 5 -5 6 9 8 22 5 27 -3 6 1 13 9 16 9 3 16 10 16 15 0 6
-9 5 -21 -1 -11 -7 -23 -9 -27 -6 -9 9 3 17 32 20 14 1 29 6 33 9 11 11 23 8
29 -8z m-1302 -10 c3 -8 1 -15 -3 -15 -5 0 -11 7 -15 15 -3 8 -1 15 3 15 5 0
11 -7 15 -15z m-551 -20 c-3 -9 -8 -14 -10 -11 -3 3 -2 9 2 15 9 16 15 13 8
-4z m514 -17 c-3 -8 -6 -5 -6 6 -1 11 2 17 5 13 3 -3 4 -12 1 -19z m-497 -19
c0 -11 -4 -18 -9 -14 -6 3 -14 -3 -20 -12 -9 -15 -10 -14 -7 7 2 14 9 24 15
23 6 -2 11 2 11 7 0 6 2 10 5 10 3 0 5 -9 5 -21z m587 -33 c0 -25 -5 -43 -9
-39 -5 3 -7 11 -4 19 3 7 1 16 -4 19 -6 4 -10 14 -10 23 0 15 2 15 11 2 9 -12
10 -11 6 8 -3 12 -2 20 3 17 4 -3 8 -25 7 -49z m-893 8 c5 -14 4 -15 -9 -4
-17 14 -19 20 -6 20 5 0 12 -7 15 -16z m206 1 c0 -8 -7 -15 -15 -15 -8 0 -15
-5 -15 -12 0 -9 -3 -9 -12 1 -11 10 -9 15 6 27 25 18 36 18 36 -1z m1761 -2
c10 -11 10 -14 2 -9 -7 4 -13 2 -13 -3 0 -6 6 -11 13 -11 21 0 -47 -32 -78
-36 -50 -7 -60 -9 -70 -16 -6 -3 -19 0 -30 8 -10 8 -14 14 -9 14 6 0 15 -4 22
-10 9 -7 9 -7 2 2 -16 19 -12 38 9 38 11 0 23 5 26 11 4 6 13 8 21 5 7 -3 28
1 46 9 42 18 43 18 59 -2z m-1695 -38 c-3 -8 0 -15 7 -15 8 0 7 -4 -3 -10 -8
-5 -16 -7 -18 -5 -5 5 8 45 15 45 3 0 3 -7 -1 -15z m600 -31 c-3 -8 -1 -14 5
-14 6 0 7 -4 4 -10 -12 -20 -25 -9 -25 21 0 19 4 28 11 24 6 -4 8 -13 5 -21z
m884 -4 c0 -5 -2 -10 -4 -10 -3 0 -8 5 -11 10 -3 6 -1 10 4 10 6 0 11 -4 11
-10z m30 -4 c0 -3 -4 -8 -10 -11 -5 -3 -10 -1 -10 4 0 6 5 11 10 11 6 0 10 -2
10 -4z m-1490 -10 c0 -2 -9 -6 -20 -9 -11 -3 -20 -1 -20 4 0 5 9 9 20 9 11 0
20 -2 20 -4z m528 -41 c-3 -3 -9 2 -12 12 -6 14 -5 15 5 6 7 -7 10 -15 7 -18z
m752 3 c0 -6 -6 -8 -14 -5 -7 3 -18 1 -24 -5 -6 -6 -12 -6 -17 1 -4 7 -1 10 7
9 7 -2 12 2 11 8 -1 7 6 10 17 7 11 -3 20 -10 20 -15z m-1316 -14 c3 -8 2 -12
-4 -9 -6 3 -10 10 -10 16 0 14 7 11 14 -7z m1256 -14 c0 -5 -2 -10 -4 -10 -3
0 -8 5 -11 10 -3 6 -1 10 4 10 6 0 11 -4 11 -10z m345 1 c-3 -5 -1 -12 5 -16
5 -3 10 -2 10 4 0 6 7 8 15 5 8 -3 14 -16 13 -29 -2 -20 -5 -21 -25 -12 -13 6
-23 14 -23 19 0 4 -7 8 -16 8 -8 0 -12 -4 -9 -10 3 -6 -1 -7 -9 -4 -9 3 -16
10 -16 16 0 5 4 7 9 3 6 -3 16 1 23 9 14 17 33 22 23 7z m490 -1 c3 -5 3 -10
-2 -11 -30 -2 -59 -11 -67 -19 -17 -17 -27 -11 -14 10 7 10 24 21 38 23 14 2
28 5 32 6 4 0 10 -3 13 -9z m-2095 -20 c0 -5 -5 -10 -11 -10 -5 0 -7 5 -4 10
3 6 8 10 11 10 2 0 4 -4 4 -10z m30 0 c0 -5 -5 -10 -11 -10 -5 0 -7 5 -4 10 3
6 8 10 11 10 2 0 4 -4 4 -10z m-193 -22 c-3 -8 -6 -5 -6 6 -1 11 2 17 5 13 3
-3 4 -12 1 -19z m753 1 c0 -5 -4 -9 -10 -9 -5 0 -10 7 -10 16 0 8 5 12 10 9 6
-3 10 -10 10 -16z m70 -19 c-1 -12 -4 -11 -15 4 -8 10 -12 23 -8 29 7 11 23
-12 23 -33z m600 30 c0 -5 -5 -10 -11 -10 -5 0 -7 5 -4 10 3 6 8 10 11 10 2 0
4 -4 4 -10z m-1264 -37 c-10 -10 -19 5 -10 18 6 11 8 11 12 0 2 -7 1 -15 -2
-18z m691 5 c-3 -8 -6 -5 -6 6 -1 11 2 17 5 13 3 -3 4 -12 1 -19z m540 16 c-3
-3 -12 -4 -19 -1 -8 3 -5 6 6 6 11 1 17 -2 13 -5z m661 -13 c3 -8 0 -11 -5 -8
-5 3 -15 2 -22 -2 -10 -6 -9 -12 4 -25 9 -9 12 -16 6 -16 -6 0 -13 0 -16 0 -3
0 -5 3 -4 7 0 3 -6 10 -15 15 -21 12 -20 35 2 41 27 8 45 3 50 -12z m-1293
-11 c3 -5 1 -10 -4 -10 -6 0 -11 5 -11 10 0 6 2 10 4 10 3 0 8 -4 11 -10z
m189 -12 c-10 -36 -26 -58 -20 -28 3 14 6 31 6 38 0 6 5 12 11 12 6 0 8 -9 3
-22z m977 -7 c-6 -10 -8 -21 -5 -24 3 -3 -4 -15 -15 -26 -12 -12 -21 -20 -21
-18 0 9 41 87 46 87 2 0 0 -8 -5 -19z m-1761 -12 c0 -11 -4 -17 -10 -14 -5 3
-10 13 -10 21 0 8 5 14 10 14 6 0 10 -9 10 -21z m1670 1 c0 -5 -8 -10 -17 -10
-15 0 -16 2 -3 10 19 12 20 12 20 0z m-650 -36 c0 -8 6 -14 13 -14 8 0 7 -3
-3 -9 -20 -13 -30 -4 -30 25 0 14 4 22 10 19 6 -3 10 -13 10 -21z m790 11 c0
-12 -19 -12 -23 0 -4 9 -1 12 9 8 7 -3 14 -7 14 -8z m94 -1 c3 -8 2 -12 -4 -9
-6 3 -10 10 -10 16 0 14 7 11 14 -7z m-1098 -6 c4 -7 3 -8 -4 -4 -7 4 -12 2
-12 -3 0 -6 -4 -11 -10 -11 -5 0 -7 7 -4 15 7 18 20 19 30 3z m859 2 c-3 -5
-1 -10 4 -10 6 0 11 -8 11 -17 0 -15 -2 -14 -14 2 -13 18 -13 35 0 35 3 0 2
-4 -1 -10z m183 -12 c6 -13 21 -38 32 -56 18 -25 19 -31 6 -26 -9 3 -19 17
-22 29 -3 13 -12 26 -19 28 -13 6 -28 47 -16 47 4 0 13 -10 19 -22z m62 -30
c0 -14 -19 1 -31 25 -12 22 -12 22 10 3 11 -11 21 -23 21 -28z m-733 -3 c0 -8
-4 -15 -9 -15 -4 0 -8 7 -8 15 0 8 4 15 8 15 5 0 9 -7 9 -15z m453 5 c0 -5 -4
-10 -10 -10 -5 0 -10 5 -10 10 0 6 5 10 10 10 6 0 10 -4 10 -10z m-700 -9 c0
-6 -4 -13 -10 -16 -5 -3 -10 1 -10 9 0 9 5 16 10 16 6 0 10 -4 10 -9z m77 -23
c-3 -8 -6 -5 -6 6 -1 11 2 17 5 13 3 -3 4 -12 1 -19z m573 18 c0 -3 -4 -8 -10
-11 -5 -3 -10 -1 -10 4 0 6 5 11 10 11 6 0 10 -2 10 -4z m-724 -52 c2 -18 -1
-20 -11 -11 -7 7 -10 18 -8 24 3 7 0 13 -7 13 -6 0 -8 4 -5 10 9 15 30 -9 31
-36z m134 37 c0 -6 -4 -13 -10 -16 -5 -3 -10 1 -10 9 0 9 5 16 10 16 6 0 10
-4 10 -9z m164 0 c3 -5 -1 -11 -9 -14 -9 -4 -12 -1 -8 9 6 16 10 17 17 5z
m613 -13 c-3 -8 -6 -5 -6 6 -1 11 2 17 5 13 3 -3 4 -12 1 -19z m-74 -13 c4 -8
2 -17 -3 -20 -6 -4 -10 3 -10 14 0 25 6 27 13 6z m164 -7 c-3 -8 -6 -5 -6 6
-1 11 2 17 5 13 3 -3 4 -12 1 -19z m-970 -10 c-3 -8 -6 -5 -6 6 -1 11 2 17 5
13 3 -3 4 -12 1 -19z m58 12 c3 -5 1 -10 -4 -10 -6 0 -11 5 -11 10 0 6 2 10 4
10 3 0 8 -4 11 -10z m455 0 c0 -5 -4 -10 -10 -10 -5 0 -10 5 -10 10 0 6 5 10
10 10 6 0 10 -4 10 -10z m133 -5 c-3 -9 -8 -14 -10 -11 -3 3 -2 9 2 15 9 16
15 13 8 -4z m199 -17 c-8 -8 -9 -4 -5 13 4 13 8 18 11 10 2 -7 -1 -18 -6 -23z
m-932 12 c0 -5 -5 -10 -11 -10 -5 0 -7 5 -4 10 3 6 8 10 11 10 2 0 4 -4 4 -10z
m302 -12 c-7 -7 -12 -8 -12 -2 0 14 12 26 19 19 2 -3 -1 -11 -7 -17z m336 14
c12 10 14 10 8 1 -12 -22 -44 -34 -52 -21 -4 7 -3 8 4 4 7 -4 12 0 13 11 0 11
3 13 6 5 4 -10 8 -10 21 0z m200 -27 c-3 -3 -9 2 -12 12 -6 14 -5 15 5 6 7 -7
10 -15 7 -18z m-591 -7 c-3 -8 -6 -5 -6 6 -1 11 2 17 5 13 3 -3 4 -12 1 -19z
m433 18 c0 -3 -4 -8 -10 -11 -5 -3 -10 -1 -10 4 0 6 5 11 10 11 6 0 10 -2 10
-4z m23 -16 c3 -11 1 -18 -4 -14 -5 3 -9 12 -9 20 0 20 7 17 13 -6z m-432 -13
c-10 -9 -11 -8 -5 6 3 10 9 15 12 12 3 -3 0 -11 -7 -18z m290 -10 c-4 -11 -14
-23 -22 -25 -11 -4 -12 -2 -1 9 15 16 16 43 0 33 -7 -4 -8 -3 -4 4 12 20 35 2
27 -21z m243 7 c3 -8 2 -12 -4 -9 -6 3 -10 10 -10 16 0 14 7 11 14 -7z m-654
2 c0 -2 -8 -10 -17 -17 -16 -13 -17 -12 -4 4 13 16 21 21 21 13z m495 -22 c0
-21 -2 -22 -11 -9 -7 9 -16 15 -20 14 -5 -1 -17 -1 -27 0 -31 2 -10 17 25 18
28 1 33 -2 33 -23z m135 16 c0 -5 -2 -10 -4 -10 -3 0 -8 5 -11 10 -3 6 -1 10
4 10 6 0 11 -4 11 -10z m-260 -4 c0 -3 -4 -8 -10 -11 -5 -3 -10 -1 -10 4 0 6
5 11 10 11 6 0 10 -2 10 -4z m-1300 -21 c-7 -9 -15 -13 -19 -10 -3 3 1 10 9
15 21 14 24 12 10 -5z m872 -17 c-8 -8 -9 -4 -5 13 4 13 8 18 11 10 2 -7 -1
-18 -6 -23z m408 -3 c0 -5 -5 -3 -10 5 -9 13 -10 13 -10 -1 0 -8 -7 -24 -16
-35 -15 -18 -15 -18 -5 2 6 12 8 24 4 27 -3 4 0 14 7 22 11 13 15 13 21 3 5
-7 9 -17 9 -23z m462 10 c-2 -5 -10 -9 -18 -7 -18 4 -46 -23 -36 -33 4 -5 1
-5 -6 -1 -7 4 -10 12 -7 17 4 5 2 9 -4 9 -15 0 -23 -18 -11 -25 5 -3 10 -11
10 -18 0 -8 -3 -8 -11 0 -6 6 -18 9 -27 6 -9 -4 -13 -2 -9 4 4 6 1 14 -5 16
-18 8 11 27 29 20 7 -3 13 0 13 5 0 11 33 20 65 18 11 0 19 -5 17 -11z m62 -1
c3 -8 17 -14 32 -14 19 0 25 -4 20 -15 -3 -8 -2 -15 2 -15 11 0 9 -74 -3 -82
-6 -5 -6 -8 3 -8 6 0 12 -8 12 -19 0 -20 -14 -34 -42 -44 -15 -5 -17 -1 -14
24 5 39 16 50 16 16 0 -15 3 -27 8 -27 6 0 6 56 -1 131 -2 28 -27 29 -27 1 0
-24 -21 0 -23 26 -1 16 -4 18 -14 10 -7 -6 -13 -9 -14 -7 -7 34 -5 37 16 37
13 0 26 -7 29 -14z m-574 -9 c0 -12 -19 -12 -23 0 -4 9 -1 12 9 8 7 -3 14 -7
14 -8z m157 -17 c-3 -7 -5 -2 -5 12 0 14 2 19 5 13 2 -7 2 -19 0 -25z m113 10
c0 -6 -3 -8 -7 -5 -3 4 -12 -1 -20 -11 -8 -9 -11 -11 -7 -3 3 7 0 18 -7 23
-11 8 -10 9 4 4 9 -3 17 -1 17 5 0 6 5 7 10 4 6 -3 10 -11 10 -17z m-170 2
c-8 -5 -19 -10 -25 -10 -5 0 -3 5 5 10 8 5 20 10 25 10 6 0 3 -5 -5 -10z m35
1 c3 -5 1 -12 -5 -16 -5 -3 -10 1 -10 9 0 18 6 21 15 7z m-165 -15 c0 -3 -4
-8 -10 -11 -5 -3 -10 -1 -10 4 0 6 5 11 10 11 6 0 10 -2 10 -4z m63 -35 c-15
-22 -29 -36 -31 -32 -2 7 48 71 56 71 2 0 -9 -18 -25 -39z m158 8 c-5 -13 -10
-19 -10 -12 -1 15 10 45 15 40 3 -2 0 -15 -5 -28z m187 -9 c-1 -16 -6 -28 -12
-27 -6 1 -10 -4 -8 -11 1 -8 -2 -11 -7 -8 -5 4 -14 -2 -20 -11 -9 -16 -12 -16
-21 -3 -14 22 -12 33 5 26 9 -3 19 3 26 16 8 16 8 19 -1 13 -8 -5 -11 -3 -8 6
3 8 11 13 17 12 6 -2 11 4 11 13 0 8 4 13 9 9 5 -3 9 -19 9 -35z m-1588 26 c0
-2 -7 -7 -16 -10 -8 -3 -12 -2 -9 4 6 10 25 14 25 6z m1128 -36 c-7 -10 -14
-17 -17 -15 -4 4 18 35 25 35 2 0 -1 -9 -8 -20z m212 13 c0 -5 -5 -15 -10 -23
-8 -12 -10 -11 -10 8 0 12 5 22 10 22 6 0 10 -3 10 -7z m200 -28 c0 -5 -5 -3
-11 5 -8 11 -12 12 -16 2 -2 -6 -9 -10 -14 -6 -12 7 -11 -3 3 -29 10 -20 10
-21 -6 -8 -14 12 -16 12 -10 -3 3 -9 2 -16 -3 -16 -17 0 -23 13 -12 26 6 8 8
22 5 31 -4 10 -4 14 0 11 4 -4 16 -1 27 7 21 15 37 6 37 -20z m80 -8 c0 -18
-2 -19 -10 -7 -13 20 -13 43 0 35 6 -3 10 -16 10 -28z m106 18 c9 -8 12 -20 8
-26 -4 -7 -3 -9 4 -5 19 11 22 -11 6 -43 -20 -39 -30 -39 -42 2 -17 56 -21 80
-12 71 5 -5 11 -21 14 -36 2 -15 10 -35 16 -45 9 -14 10 -9 5 27 -3 24 -11 50
-17 57 -15 18 0 16 18 -2z m-559 -1 c-3 -3 -12 -4 -19 -1 -8 3 -5 6 6 6 11 1
17 -2 13 -5z m179 -40 c-10 -14 -20 -23 -23 -20 -3 3 2 12 11 21 9 9 16 21 16
27 0 6 3 8 6 5 4 -4 -1 -18 -10 -33z m327 23 c3 -8 2 -19 -3 -26 -5 -9 -9 -4
-12 13 -5 27 6 36 15 13z m-723 -29 c0 -19 -16 -5 -17 14 -2 18 0 20 7 8 5 -8
10 -18 10 -22z m187 10 c-3 -8 -6 -5 -6 6 -1 11 2 17 5 13 3 -3 4 -12 1 -19z
m663 7 c0 -8 -4 -15 -10 -15 -5 0 -7 7 -4 15 4 8 8 15 10 15 2 0 4 -7 4 -15z
m-400 1 c0 -2 -8 -10 -17 -17 -16 -13 -17 -12 -4 4 13 16 21 21 21 13z m-225
-16 c3 -5 1 -10 -4 -10 -6 0 -11 5 -11 10 0 6 2 10 4 10 3 0 8 -4 11 -10z m47
-12 c-7 -7 -12 -8 -12 -2 0 14 12 26 19 19 2 -3 -1 -11 -7 -17z m42 7 c-4 -8
-11 -15 -16 -15 -6 0 -5 6 2 15 7 8 14 15 16 15 2 0 1 -7 -2 -15z m316 -4 c0
-6 -4 -13 -10 -16 -5 -3 -10 1 -10 9 0 9 5 16 10 16 6 0 10 -4 10 -9z m44 -8
c-3 9 -1 17 5 17 13 0 15 -46 2 -54 -4 -3 -13 6 -20 20 -15 34 -14 42 4 18 13
-16 14 -16 9 -1z m-154 -13 c8 -15 8 -20 -1 -20 -8 0 -8 -5 2 -17 11 -15 11
-16 0 -6 -7 6 -21 9 -30 6 -13 -5 -12 -2 4 17 l20 23 -24 -13 c-13 -6 -26 -21
-29 -32 -3 -12 -10 -17 -20 -13 -11 4 -13 0 -9 -15 3 -11 1 -18 -4 -14 -5 3
-9 0 -9 -5 0 -6 -4 -11 -10 -11 -21 0 -8 23 38 70 26 27 50 49 54 50 4 0 12
-9 18 -20z m-310 5 c0 -2 -10 -14 -23 -27 -12 -13 -21 -30 -20 -38 2 -8 -6
-21 -17 -28 -12 -7 -20 -8 -20 -2 0 5 5 10 11 10 6 0 9 9 6 20 -3 13 1 24 14
30 10 6 16 16 13 23 -2 7 4 13 16 14 11 1 20 0 20 -2z m344 -9 c-3 -7 2 -16
10 -19 11 -5 16 0 16 13 0 11 4 20 10 20 5 0 7 -6 4 -13 -3 -8 3 -13 16 -13
11 0 20 4 20 9 0 4 5 5 10 2 19 -12 11 -33 -11 -28 -12 4 -25 0 -30 -8 -7 -12
-9 -12 -9 1 -1 9 -6 6 -16 -10 -9 -15 -13 -17 -10 -6 4 11 0 23 -10 31 -10 6
-14 17 -10 23 10 16 17 15 10 -2z m176 -18 c0 -5 -4 -8 -10 -8 -5 0 -10 10
-10 23 0 18 2 19 10 7 5 -8 10 -18 10 -22z m95 10 c-11 -36 -22 -41 -17 -8 2
16 9 30 14 30 5 0 6 -10 3 -22z m-563 -10 c-7 -7 -12 -8 -12 -2 0 14 12 26 19
19 2 -3 -1 -11 -7 -17z m-41 -11 c-10 -9 -11 -8 -5 6 3 10 9 15 12 12 3 -3 0
-11 -7 -18z m149 3 c0 -5 -5 -10 -11 -10 -5 0 -7 5 -4 10 3 6 8 10 11 10 2 0
4 -4 4 -10z m-40 -14 c0 -8 -4 -17 -8 -20 -4 -2 -8 4 -8 15 0 10 4 19 8 19 4
0 8 -6 8 -14z m-94 -24 c-18 -16 -18 -16 -6 6 6 13 14 21 18 18 3 -4 -2 -14
-12 -24z m-36 14 c0 -3 -4 -8 -10 -11 -5 -3 -10 -1 -10 4 0 6 5 11 10 11 6 0
10 -2 10 -4z m83 -29 c-3 -5 1 -14 8 -19 11 -7 11 -11 1 -15 -6 -2 -10 -9 -6
-14 3 -5 0 -9 -6 -9 -6 0 -8 -4 -5 -10 4 -6 -1 -7 -11 -3 -12 4 -15 2 -12 -8
3 -8 12 -13 21 -13 10 1 13 -4 10 -13 -10 -25 -54 27 -47 55 4 12 11 22 16 22
5 0 7 -4 3 -9 -3 -5 -1 -12 4 -15 11 -7 25 25 13 33 -7 5 -8 18 -3 46 1 6 5 3
10 -5 6 -8 7 -18 4 -23z m-106 -30 c-5 -15 -45 -19 -53 -5 -5 8 -2 9 10 5 10
-4 19 -1 22 8 7 17 27 9 21 -8z m29 -15 c-17 -16 -18 -16 -5 5 7 12 15 20 18
17 3 -2 -3 -12 -13 -22z m180 1 c-4 -4 -12 -1 -19 7 -9 10 -9 11 1 6 7 -4 12
-2 13 6 0 11 2 11 6 0 3 -7 2 -16 -1 -19z m344 7 c0 -5 -8 -10 -17 -10 -15 0
-16 2 -3 10 19 12 20 12 20 0z m-616 -25 c-4 -8 -11 -15 -16 -15 -6 0 -5 6 2
15 7 8 14 15 16 15 2 0 1 -7 -2 -15z m56 -5 c0 -10 -15 -14 -34 -11 -5 1 -6
-5 -3 -14 4 -8 2 -15 -3 -15 -17 0 -11 28 8 39 22 13 32 14 32 1z m563 -4 c15
-4 27 -2 27 3 0 8 153 9 170 1 3 -1 10 -3 16 -4 12 -1 49 -36 38 -36 -4 0 -16
7 -26 17 -10 9 -18 11 -18 6 0 -6 6 -15 13 -21 7 -6 14 -28 15 -49 2 -20 0
-34 -4 -31 -3 4 -15 -1 -26 -11 -36 -35 -137 -41 -228 -15 -85 24 -127 34
-173 40 -68 10 -71 11 -100 23 -16 6 -25 16 -22 21 9 14 65 42 65 33 0 -5 4
-3 8 3 16 25 164 37 245 20z m-393 -6 c0 -5 -5 -10 -11 -10 -5 0 -7 5 -4 10 3
6 8 10 11 10 2 0 4 -4 4 -10z m-145 -20 c3 -5 1 -10 -4 -10 -6 0 -11 5 -11 10
0 6 2 10 4 10 3 0 8 -4 11 -10z m-5 -33 c0 -3 -7 -7 -14 -10 -10 -4 -13 -1 -9
9 3 7 0 14 -7 14 -6 0 -8 5 -5 10 6 9 35 -10 35 -23z m55 23 c3 -5 2 -10 -4
-10 -5 0 -13 5 -16 10 -3 6 -2 10 4 10 5 0 13 -4 16 -10z m-250 -19 c3 -5 1
-12 -5 -16 -5 -3 -10 1 -10 9 0 18 6 21 15 7z m148 -11 c3 -11 1 -20 -4 -20
-5 0 -9 5 -9 10 0 15 -27 12 -44 -6 -15 -14 -16 -13 -16 6 0 12 4 18 10 15 5
-3 18 -1 27 4 25 15 30 14 36 -9z m115 -7 c-9 -10 -13 -24 -10 -32 4 -12 3
-12 -10 0 -16 14 -13 43 2 34 5 -3 11 -1 15 5 3 5 9 10 12 10 3 0 -1 -8 -9
-17z m-48 3 c0 -2 -8 -10 -17 -17 -16 -13 -17 -12 -4 4 13 16 21 21 21 13z
m-106 -35 c-10 -10 -21 -17 -23 -15 -6 6 20 34 32 34 6 0 2 -8 -9 -19z m190 4
c3 -9 0 -15 -8 -15 -7 0 -13 7 -13 15 0 8 4 15 8 15 4 0 9 -7 13 -15z m138 1
c7 4 8 2 4 -5 -4 -6 -12 -9 -17 -6 -5 4 -9 1 -9 -4 0 -6 -5 -11 -10 -11 -6 0
-5 8 2 20 7 11 14 16 16 10 2 -6 9 -7 14 -4z m-218 -21 c-4 -8 -8 -15 -10 -15
-2 0 -4 7 -4 15 0 8 4 15 10 15 5 0 7 -7 4 -15z m268 -7 c-2 -10 -8 -15 -13
-12 -14 8 -11 31 5 31 8 0 11 -8 8 -19z m47 3 c0 -3 -7 -22 -14 -41 l-13 -35
1 41 c1 25 7 41 15 41 6 0 12 -3 11 -6z m-493 -16 c19 -19 14 -19 -22 0 -21
11 -24 15 -11 15 10 0 25 -7 33 -15z m564 -6 c0 -14 -27 -10 -33 5 -4 10 0 12
14 9 10 -3 19 -9 19 -14z m560 11 c0 -5 -4 -10 -10 -10 -5 0 -10 5 -10 10 0 6
5 10 10 10 6 0 10 -4 10 -10z m-823 -6 c-3 -3 -12 -4 -19 -1 -8 3 -5 6 6 6 11
1 17 -2 13 -5z m-177 -39 c0 5 7 -1 16 -13 8 -12 19 -20 23 -18 4 3 8 -1 8 -9
0 -21 -15 -18 -29 5 -7 11 -16 20 -20 20 -15 0 -8 -20 12 -37 11 -10 20 -21
20 -26 0 -4 -10 1 -22 13 -12 11 -29 20 -37 21 -11 0 -12 2 -3 6 6 2 12 9 12
14 0 6 -6 7 -12 3 -9 -5 -9 -2 1 9 7 9 9 17 3 17 -5 0 -13 8 -16 17 -5 13 0
11 18 -6 15 -14 26 -20 26 -16z m66 19 c-3 -9 -3 -21 1 -27 4 -6 8 -25 10 -42
2 -16 8 -31 13 -33 19 -7 10 -19 -14 -19 -18 0 -23 4 -19 15 4 10 2 13 -5 8
-8 -5 -10 -2 -6 8 3 9 10 16 14 16 5 0 4 16 -1 35 -6 19 -7 40 -4 45 10 16 18
12 11 -6z m-137 -17 c12 -15 12 -17 -3 -11 -9 3 -16 13 -16 22 0 8 1 13 3 11
1 -2 9 -12 16 -22z m265 8 c-4 -8 -10 -12 -15 -9 -11 6 -2 24 11 24 5 0 7 -7
4 -15z m118 -17 c-8 -8 -9 -4 -5 13 4 13 8 18 11 10 2 -7 -1 -18 -6 -23z m107
4 c5 -10 6 -32 1 -52 l-8 -35 -2 45 c-2 29 -4 36 -7 20 -3 -14 -9 -29 -15 -35
-7 -7 -9 -2 -4 15 3 14 6 33 6 43 0 22 17 22 29 -1z m-549 4 c0 -3 -4 -8 -10
-11 -5 -3 -10 -1 -10 4 0 6 5 11 10 11 6 0 10 -2 10 -4z m859 -12 c-7 -8 -5
-17 7 -28 13 -13 14 -19 4 -32 -17 -19 -23 -12 -27 34 -3 30 0 39 11 39 11 0
13 -4 5 -13z m-362 -26 c-3 -7 -5 -2 -5 12 0 14 2 19 5 13 2 -7 2 -19 0 -25z
m123 7 c9 -11 10 -22 2 -42 -6 -16 -13 -39 -15 -53 -2 -14 -5 1 -6 33 0 36 -5
56 -11 52 -5 -3 -10 -15 -10 -26 0 -10 -4 -19 -9 -19 -8 0 -6 21 5 58 5 17 29
15 44 -3z m41 -90 l-21 -50 5 40 5 40 -15 -30 -15 -30 6 40 c4 22 14 53 23 68
l16 28 8 -28 c6 -21 3 -42 -12 -78z m117 93 c14 -102 10 -119 -16 -78 -15 24
-32 26 -32 4 0 -8 5 -12 10 -9 16 10 11 -12 -6 -30 -22 -22 -28 -13 -18 27 4
18 7 36 6 41 -3 11 16 9 23 -3 3 -5 13 -10 21 -10 11 0 12 4 3 19 -7 10 -9 26
-6 35 8 19 13 21 15 4z m-793 -8 c3 -5 2 -10 -4 -10 -5 0 -13 5 -16 10 -3 6
-2 10 4 10 5 0 13 -4 16 -10z m723 -42 c-8 -18 -14 -48 -13 -67 2 -31 1 -32
-12 -16 -16 23 -16 33 2 65 8 14 14 36 15 50 0 18 3 21 12 12 9 -9 8 -19 -4
-44z m-618 1 c0 -4 -7 -6 -15 -3 -8 4 -15 10 -15 15 0 4 7 6 15 3 8 -4 15 -10
15 -15z m827 -1 c-3 -8 -6 -5 -6 6 -1 11 2 17 5 13 3 -3 4 -12 1 -19z m-31
-24 c-4 -9 -9 -15 -11 -12 -3 3 -3 13 1 22 4 9 9 15 11 12 3 -3 3 -13 -1 -22z
m-716 -3 c0 -5 3 -18 6 -28 5 -15 4 -16 -5 -3 -10 13 -13 13 -26 -4 -12 -16
-12 -22 2 -45 l16 -26 -25 27 c-14 15 -29 24 -33 20 -5 -4 -5 -1 -1 6 4 7 11
10 16 7 4 -3 14 8 22 25 12 29 28 40 28 21z m-90 -5 c0 -2 -7 -9 -15 -16 -13
-11 -14 -10 -9 4 5 14 24 23 24 12z m40 -16 c0 -5 -4 -10 -9 -10 -6 0 -13 5
-16 10 -3 6 1 10 9 10 9 0 16 -4 16 -10z m126 1 c-4 -5 -1 -11 6 -13 7 -3 5
-7 -6 -11 -10 -4 -15 -3 -11 3 3 6 1 10 -4 10 -6 0 -11 5 -11 10 0 6 7 10 16
10 8 0 13 -4 10 -9z m529 -21 c-3 -5 -11 -10 -16 -10 -6 0 -7 5 -4 10 3 6 11
10 16 10 6 0 7 -4 4 -10z m-703 -19 c15 -18 15 -19 0 -23 -12 -4 -17 2 -18 19
-2 28 -2 28 18 4z m122 1 c3 -5 -1 -9 -9 -9 -8 0 -15 4 -15 9 0 4 4 8 9 8 6 0
12 -4 15 -8z m606 -10 c0 -5 -7 -9 -15 -9 -8 0 -15 4 -15 9 0 4 7 8 15 8 8 0
15 -4 15 -8z m-619 -45 c-10 -9 -11 -8 -5 6 3 10 9 15 12 12 3 -3 0 -11 -7
-18z m-61 9 c0 -3 -4 -8 -10 -11 -5 -3 -10 -1 -10 4 0 6 5 11 10 11 6 0 10 -2
10 -4z m37 -68 c-3 -8 -6 -5 -6 6 -1 11 2 17 5 13 3 -3 4 -12 1 -19z m-107
-168 c0 -5 -5 -10 -11 -10 -5 0 -7 5 -4 10 3 6 8 10 11 10 2 0 4 -4 4 -10z
m120 -13 c0 -2 -10 -12 -22 -23 l-23 -19 19 23 c18 21 26 27 26 19z m-76 -22
c-4 -8 -8 -15 -10 -15 -2 0 -4 7 -4 15 0 8 4 15 10 15 5 0 7 -7 4 -15z m396
-6 c0 -6 -4 -7 -10 -4 -5 3 -10 11 -10 16 0 6 5 7 10 4 6 -3 10 -11 10 -16z
m76 -4 c-9 -9 -16 -13 -16 -8 0 12 22 34 28 28 2 -2 -3 -11 -12 -20z m-44 -17
c-8 -8 -9 -4 -5 13 4 13 8 18 11 10 2 -7 -1 -18 -6 -23z m-77 12 c3 -5 1 -10
-4 -10 -6 0 -11 5 -11 10 0 6 2 10 4 10 3 0 8 -4 11 -10z m183 -25 c-3 -3 -9
2 -12 12 -6 14 -5 15 5 6 7 -7 10 -15 7 -18z m-128 11 c0 -3 -4 -8 -10 -11 -5
-3 -10 -1 -10 4 0 6 5 11 10 11 6 0 10 -2 10 -4z m-46 -57 c-9 -10 -21 -19
-26 -19 -4 0 1 9 13 21 23 23 18 39 -6 19 -8 -7 -15 -9 -15 -5 0 4 8 14 18 21
26 19 40 -11 16 -37z m107 18 c-8 -8 -11 -8 -11 2 0 7 -4 9 -10 6 -5 -3 -10
-1 -10 5 0 7 7 10 15 6 8 -3 15 0 16 7 0 8 2 8 6 -1 3 -8 0 -19 -6 -25z m-424
1 c-3 -8 -6 -5 -6 6 -1 11 2 17 5 13 3 -3 4 -12 1 -19z m376 -3 c4 -8 2 -17
-3 -20 -6 -4 -10 3 -10 14 0 25 6 27 13 6z m-193 -19 c0 -8 -7 -19 -15 -26 -9
-8 -15 -9 -15 -2 0 6 5 14 11 17 6 4 8 14 5 22 -3 8 -1 11 4 8 6 -3 10 -12 10
-19z m64 -12 c-3 -29 -10 -39 -17 -27 -5 8 9 53 16 53 2 0 3 -12 1 -26z m-47
-17 c-8 -13 -16 -32 -19 -42 -3 -18 -4 -18 -10 -3 -4 10 1 27 13 42 25 32 37
34 16 3z m131 3 c-7 -11 -16 -20 -20 -20 -11 0 -10 9 5 25 18 21 29 18 15 -5z
m-290 -15 c-3 -3 -9 2 -12 12 -6 14 -5 15 5 6 7 -7 10 -15 7 -18z m326 9 c3
-8 2 -12 -4 -9 -6 3 -10 10 -10 16 0 14 7 11 14 -7z m-150 -29 c-4 -8 -8 -15
-10 -15 -2 0 -4 7 -4 15 0 8 4 15 10 15 5 0 7 -7 4 -15z m61 -14 c-6 -5 -25
10 -25 20 0 5 6 4 14 -3 8 -7 12 -15 11 -17z m-30 -2 c11 -17 -1 -21 -15 -4
-8 9 -8 15 -2 15 6 0 14 -5 17 -11z m60 -39 c3 -6 -1 -7 -9 -4 -18 7 -21 14
-7 14 6 0 13 -4 16 -10z m-70 -20 c3 -5 1 -10 -4 -10 -6 0 -11 5 -11 10 0 6 2
10 4 10 3 0 8 -4 11 -10z"/>
<path d="M4816 3315 c-3 -8 -1 -15 4 -15 6 0 10 7 10 15 0 8 -2 15 -4 15 -2 0
-6 -7 -10 -15z"/>
<path d="M4783 3301 c-7 -10 -9 -22 -6 -25 12 -12 18 -6 19 19 2 30 2 30 -13
6z"/>
<path d="M4926 3281 c-4 -5 -2 -20 3 -33 9 -21 9 -20 8 9 -2 36 -3 38 -11 24z"/>
<path d="M4885 3209 c-4 -6 -5 -12 -2 -15 2 -3 7 2 10 11 7 17 1 20 -8 4z"/>
<path d="M4921 3204 c0 -11 3 -14 6 -6 3 7 2 16 -1 19 -3 4 -6 -2 -5 -13z"/>
<path d="M4990 3165 c-7 -8 -8 -15 -2 -15 5 0 15 7 22 15 7 8 8 15 2 15 -5 0
-15 -7 -22 -15z"/>
<path d="M4425 3380 c3 -6 -1 -10 -9 -10 -9 0 -16 -7 -16 -15 0 -20 7 -19 31
4 18 16 18 19 4 25 -9 3 -13 2 -10 -4z"/>
<path d="M4560 3345 c7 -9 15 -13 17 -11 7 7 -7 26 -19 26 -6 0 -6 -6 2 -15z"/>
<path d="M4296 3055 c-3 -8 -1 -15 4 -15 6 0 10 7 10 15 0 8 -2 15 -4 15 -2 0
-6 -7 -10 -15z"/>
<path d="M4320 3040 c0 -5 5 -10 11 -10 5 0 7 5 4 10 -3 6 -8 10 -11 10 -2 0
-4 -4 -4 -10z"/>
<path d="M5020 2890 c-8 -5 -11 -12 -7 -16 4 -4 13 -2 19 4 15 15 7 24 -12 12z"/>
<path d="M4243 2651 c1 -15 4 -17 14 -9 9 7 13 7 13 0 0 -6 6 -9 14 -6 8 3 17
1 21 -5 8 -14 25 -14 25 0 0 5 -4 8 -9 4 -5 -3 -12 -1 -15 4 -4 5 -1 11 6 14
7 2 1 3 -14 1 -15 -2 -30 1 -33 6 -10 17 -24 11 -22 -9z"/>
<path d="M4220 2619 c0 -5 -5 -7 -12 -3 -7 4 -8 3 -4 -4 4 -6 13 -9 21 -6 8 4
12 10 9 15 -7 12 -14 11 -14 -2z"/>
<path d="M4298 2603 c6 -2 18 -2 25 0 6 3 1 5 -13 5 -14 0 -19 -2 -12 -5z"/>
<path d="M4376 2573 c-6 -14 -5 -15 5 -6 7 7 10 15 7 18 -3 3 -9 -2 -12 -12z"/>
<path d="M4402 2534 c-7 -8 -8 -14 -3 -14 10 0 25 19 20 25 -2 1 -10 -3 -17
-11z"/>
<path d="M4071 2512 c-7 -13 -10 -26 -7 -30 3 -3 6 0 6 6 0 7 6 12 14 12 7 0
20 8 27 18 13 15 12 16 -3 4 -13 -10 -17 -10 -20 0 -3 8 -9 5 -17 -10z"/>
<path d="M4355 2520 c-3 -6 1 -7 9 -4 18 7 21 14 7 14 -6 0 -13 -4 -16 -10z"/>
<path d="M4448 2523 c6 -2 18 -2 25 0 6 3 1 5 -13 5 -14 0 -19 -2 -12 -5z"/>
<path d="M4025 2500 c-3 -5 1 -10 10 -10 9 0 13 5 10 10 -3 6 -8 10 -10 10 -2
0 -7 -4 -10 -10z"/>
<path d="M4570 2470 c-9 -6 -10 -10 -3 -10 6 0 15 5 18 10 8 12 4 12 -15 0z"/>
<path d="M4530 2449 c0 -5 5 -7 10 -4 6 3 10 8 10 11 0 2 -4 4 -10 4 -5 0 -10
-5 -10 -11z"/>
<path d="M4240 2400 c-13 -8 -12 -10 3 -10 9 0 17 5 17 10 0 12 -1 12 -20 0z"/>
<path d="M4506 2355 c-4 -13 -2 -14 14 -5 23 13 26 20 6 20 -8 0 -16 -7 -20
-15z"/>
<path d="M4585 2324 c-15 -25 -25 -48 -22 -50 3 -3 13 8 23 25 10 17 21 31 25
31 4 0 9 9 12 20 9 35 -10 22 -38 -26z"/>
<path d="M4566 2343 c-6 -14 -5 -15 5 -6 7 7 10 15 7 18 -3 3 -9 -2 -12 -12z"/>
<path d="M4297 2339 c7 -7 15 -10 18 -7 3 3 -2 9 -12 12 -14 6 -15 5 -6 -5z"/>
<path d="M4526 2335 c-17 -13 -18 -17 -6 -28 8 -6 11 -8 7 -3 -4 5 0 18 10 28
19 22 15 23 -11 3z"/>
<path d="M4446 2312 c-2 -4 7 -8 20 -8 13 -1 24 1 24 5 0 9 -38 12 -44 3z"/>
<path d="M3917 2293 c-12 -11 -8 -21 13 -26 22 -6 23 -5 14 17 -7 17 -16 20
-27 9z"/>
<path d="M4327 2279 c12 -12 24 -21 27 -18 2 2 -8 13 -22 23 l-27 19 22 -24z"/>
<path d="M4444 2275 c10 -8 15 -19 10 -26 -4 -8 -3 -10 4 -5 20 12 14 33 -10
39 -22 6 -22 5 -4 -8z"/>
<path d="M4520 2260 c0 -5 5 -10 11 -10 5 0 7 5 4 10 -3 6 -8 10 -11 10 -2 0
-4 -4 -4 -10z"/>
<path d="M4485 2230 c2 -37 -13 -50 -31 -26 -8 11 -14 13 -19 7 -8 -14 4 -33
16 -26 5 4 9 -2 9 -11 0 -17 1 -17 13 -1 12 17 57 14 57 -5 0 -5 -6 -6 -12 -2
-10 5 -10 4 -1 -6 6 -7 16 -9 22 -6 18 11 13 24 -11 32 -23 7 -38 21 -38 37 0
5 4 6 8 3 4 -2 8 4 8 15 0 10 -5 19 -12 19 -6 0 -10 -13 -9 -30z"/>
<path d="M4545 2240 c-3 -5 1 -10 10 -10 9 0 13 5 10 10 -3 6 -8 10 -10 10 -2
0 -7 -4 -10 -10z"/>
<path d="M4320 2230 c-9 -6 -10 -10 -3 -10 6 0 15 5 18 10 8 12 4 12 -15 0z"/>
<path d="M3930 2226 c0 -2 7 -9 15 -16 9 -7 15 -8 15 -2 0 5 -7 12 -15 16 -8
3 -15 4 -15 2z"/>
<path d="M4396 2221 c-3 -5 1 -11 9 -15 8 -3 15 -1 15 4 0 13 -18 22 -24 11z"/>
<path d="M4366 2206 c5 -12 0 -16 -22 -16 -26 -1 -27 -2 -11 -11 14 -8 22 -8
30 0 14 14 30 14 21 0 -4 -8 1 -9 17 -4 13 4 21 4 17 0 -9 -9 16 -35 33 -35 8
0 6 -6 -4 -18 -19 -21 -13 -32 15 -32 10 0 18 7 18 16 0 14 -3 14 -17 3 -17
-12 -17 -12 -2 5 15 16 14 19 -12 47 -16 17 -35 32 -43 33 -8 1 -21 8 -30 15
-14 12 -16 12 -10 -3z"/>
<path d="M4520 2214 c0 -2 9 -8 20 -14 15 -8 18 -8 14 3 -4 11 -34 21 -34 11z"/>
<path d="M4151 2194 c0 -11 3 -14 6 -6 3 7 2 16 -1 19 -3 4 -6 -2 -5 -13z"/>
<path d="M4310 2148 c-11 -12 -17 -24 -14 -27 4 -3 9 0 11 7 3 6 10 12 17 12
7 0 13 7 13 15 0 20 -2 19 -27 -7z"/>
<path d="M4480 2161 c0 -5 5 -13 10 -16 6 -3 10 -2 10 4 0 5 -4 13 -10 16 -5
3 -10 2 -10 -4z"/>
<path d="M3920 2150 c0 -5 5 -10 10 -10 6 0 10 5 10 10 0 6 -4 10 -10 10 -5 0
-10 -4 -10 -10z"/>
<path d="M3953 2138 c-6 -12 -14 -40 -17 -61 -4 -30 0 -42 21 -65 l25 -27 -3
25 c-2 14 -11 25 -19 25 -9 0 -14 8 -12 20 1 11 3 31 3 45 1 14 6 28 11 31 6
4 9 12 6 19 -2 7 -9 2 -15 -12z"/>
<path d="M4363 2145 c11 -7 25 -11 33 -8 22 8 6 23 -24 23 -25 -1 -26 -2 -9
-15z"/>
<path d="M3990 2146 c0 -2 8 -10 18 -17 15 -13 16 -12 3 4 -13 16 -21 21 -21
13z"/>
<path d="M4130 2119 c0 -5 5 -7 10 -4 6 3 10 8 10 11 0 2 -4 4 -10 4 -5 0 -10
-5 -10 -11z"/>
<path d="M4490 2113 c0 -12 3 -13 14 -4 7 6 22 8 32 5 11 -4 16 -4 12 1 -14
15 -58 14 -58 -2z"/>
<path d="M4570 2120 c-9 -6 -10 -10 -3 -10 6 0 15 5 18 10 8 12 4 12 -15 0z"/>
<path d="M3975 2093 c0 -22 5 -28 23 -28 19 0 20 2 7 11 -9 7 -14 17 -13 24 2
7 -1 14 -7 16 -5 2 -10 -8 -10 -23z"/>
<path d="M4040 2109 c0 -5 5 -7 10 -4 6 3 10 8 10 11 0 2 -4 4 -10 4 -5 0 -10
-5 -10 -11z"/>
<path d="M4318 2112 c-10 -2 -18 -8 -18 -13 0 -6 8 -8 19 -4 13 4 20 0 24 -15
7 -26 -13 -38 -28 -17 -7 10 -16 17 -21 17 -4 0 -3 -5 4 -12 20 -20 14 -29
-15 -22 -16 4 -24 3 -20 -2 5 -5 12 -9 15 -9 4 0 13 -4 20 -8 7 -5 12 -4 12 2
0 15 40 8 50 -9 4 -7 15 -10 25 -6 12 4 16 2 12 -7 -3 -8 3 -13 14 -14 30 -3
22 17 -12 31 -20 9 -27 15 -18 18 8 3 11 9 7 13 -4 4 -15 2 -24 -6 -15 -12
-16 -12 -11 6 8 27 -14 62 -35 57z"/>
<path d="M4260 2090 c0 -5 5 -10 11 -10 5 0 7 5 4 10 -3 6 -8 10 -11 10 -2 0
-4 -4 -4 -10z"/>
<path d="M4170 2070 c0 -5 5 -10 11 -10 5 0 7 5 4 10 -3 6 -8 10 -11 10 -2 0
-4 -4 -4 -10z"/>
<path d="M4223 2052 c-1 -22 0 -24 9 -8 6 10 6 22 2 26 -5 5 -10 -3 -11 -18z"/>
<path d="M4622 2050 c-8 -13 -8 -20 -2 -20 6 0 13 7 17 15 9 24 -1 27 -15 5z"/>
<path d="M4590 2049 c0 -5 5 -7 10 -4 6 3 10 8 10 11 0 2 -4 4 -10 4 -5 0 -10
-5 -10 -11z"/>
<path d="M3990 2041 c0 -14 29 -21 36 -9 4 7 3 8 -4 4 -7 -4 -12 -2 -12 3 0 6
-4 11 -10 11 -5 0 -10 -4 -10 -9z"/>
<path d="M4250 2021 c0 -6 4 -11 9 -11 5 0 17 -7 26 -16 12 -12 19 -14 27 -6
6 6 25 9 42 6 l31 -5 -28 16 c-23 13 -31 14 -43 4 -13 -10 -17 -10 -25 2 -5 8
-9 10 -9 5 0 -5 -7 -3 -15 4 -10 9 -15 9 -15 1z"/>
<path d="M4478 2013 c7 -3 16 -2 19 1 4 3 -2 6 -13 5 -11 0 -14 -3 -6 -6z"/>
<path d="M4186 1977 c3 -10 9 -15 12 -12 3 3 0 11 -7 18 -10 9 -11 8 -5 -6z"/>
<path d="M4212 1962 c-13 -16 -25 -23 -30 -17 -7 10 -48 35 -57 35 -2 0 -4
-16 -3 -35 1 -19 5 -35 10 -35 5 0 6 5 3 10 -3 6 -1 10 6 10 10 0 10 3 1 12
-23 23 -12 29 17 9 16 -12 34 -21 40 -21 6 0 11 -4 11 -10 0 -5 5 -10 12 -10
9 0 9 3 1 11 -17 17 -4 39 31 55 29 13 30 13 6 13 -15 1 -34 -10 -48 -27z"/>
<path d="M4320 1975 c-19 -23 0 -38 33 -26 28 11 35 3 15 -17 -8 -8 -8 -12 -1
-12 6 0 18 11 27 25 16 25 16 25 -12 25 -15 0 -33 5 -38 10 -8 8 -15 6 -24 -5z"/>
<path d="M4085 1960 c-3 -5 -1 -10 4 -10 6 0 11 5 11 10 0 6 -2 10 -4 10 -3 0
-8 -4 -11 -10z"/>
<path d="M4164 1911 c0 -9 8 -17 18 -17 10 0 18 3 18 6 0 3 -8 10 -18 16 -14
9 -18 8 -18 -5z"/>
<path d="M4245 1920 c-3 -5 -1 -10 4 -10 6 0 11 5 11 10 0 6 -2 10 -4 10 -3 0
-8 -4 -11 -10z"/>
<path d="M4070 1915 c0 -5 5 -17 10 -25 5 -8 10 -10 10 -5 0 6 -5 17 -10 25
-5 8 -10 11 -10 5z"/>
<path d="M4135 1880 c-3 -5 -1 -10 4 -10 6 0 11 5 11 10 0 6 -2 10 -4 10 -3 0
-8 -4 -11 -10z"/>
<path d="M4166 1867 c3 -10 9 -15 12 -12 3 3 0 11 -7 18 -10 9 -11 8 -5 -6z"/>
<path d="M4225 1860 c-16 -7 -17 -9 -3 -9 9 -1 20 4 23 9 7 11 7 11 -20 0z"/>
<path d="M5170 1293 c0 -6 8 -17 18 -24 16 -13 16 -13 2 6 -8 11 -16 22 -17
24 -2 2 -3 0 -3 -6z"/>
</g>
</svg>
